<svg width="26" height="20" viewBox="0 0 26 20" fill="none" xmlns="http://www.w3.org/2000/svg">
    <path
        d="M8.1029 6.42199L14.05 2.85373V17.1472L8.1029 13.579L8.0554 13.5505H8H6.75H6.55V13.7505V18.5505H4.45V13.7505V13.5505H4.25H3C2.36596 13.5505 1.82817 13.3271 1.3758 12.8747C0.923421 12.4223 0.7 11.8845 0.7 11.2505V8.75049C0.7 8.11645 0.923421 7.57866 1.3758 7.12629C1.82817 6.67391 2.36596 6.45049 3 6.45049H8H8.0554L8.1029 6.42199ZM11.6481 13.2351L11.95 13.4138V13.063V6.93799V6.58722L11.6481 6.76587L8.63275 8.55049H3H2.8V8.75049V11.2505V11.4505H3H8.63275L11.6481 13.2351ZM20.7 8.95049H25.3V11.0505H20.7V8.95049ZM21.96 19.7205L18.28 16.9605L19.54 15.2805L23.22 18.0405L21.96 19.7205ZM18.28 3.04049L21.96 0.280489L23.22 1.96049L19.54 4.72049L18.28 3.04049ZM15.7 13.7154V6.2856C16.0908 6.69982 16.4172 7.18002 16.6789 7.72741C17.0089 8.4173 17.175 9.17399 17.175 10.0005C17.175 10.827 17.0089 11.5837 16.6789 12.2736C16.4172 12.821 16.0908 13.3012 15.7 13.7154Z"
        fill="black" stroke="white" stroke-width="0.4" />
</svg>