<svg width="112" height="112" viewBox="0 0 112 112" fill="none" xmlns="http://www.w3.org/2000/svg">
<rect width="112" height="112" fill="white"/>
<path d="M25.3333 85.6667V86.6667H26.3333H84.6667H85.6667V85.6667V44V43H84.6667H69V27.3333V26.3333H68H26.3333H25.3333V27.3333V85.6667ZM26.3333 93C24.309 93 22.6009 92.2909 21.155 90.845C19.7091 89.3991 19 87.691 19 85.6667V27.3333C19 25.309 19.7091 23.6009 21.155 22.155C22.6009 20.7091 24.309 20 26.3333 20H71.7524L92 40.2475V85.6667C92 87.691 91.2909 89.3991 89.845 90.845C88.3991 92.2909 86.691 93 84.6667 93H26.3333ZM75.3333 70V76.3333H35.6667V70H75.3333ZM54.5 36.6667V43H35.6667V36.6667H54.5ZM75.3333 53.3333V59.6667H35.6667V53.3333H75.3333Z" fill="#1C1B1F" stroke="white" stroke-width="2"/>
</svg>
