<svg width="93" height="62" viewBox="0 0 93 62" fill="none" xmlns="http://www.w3.org/2000/svg">
<path d="M0 31C0 13.8792 13.8792 0 31 0H62C79.1208 0 93 13.8792 93 31C93 48.1208 79.1208 62 62 62H31C13.8792 62 0 48.1208 0 31Z" fill="black"/>
<path fill-rule="evenodd" clip-rule="evenodd" d="M47.0406 14.2807C47.0406 13.6316 46.5145 13.1055 45.8654 13.1055C45.2163 13.1055 44.6902 13.6316 44.6902 14.2807V17.8063C44.6902 17.8184 44.6904 17.8305 44.6907 17.8425C36.5896 18.3435 30 24.0152 30 32.4965C30 34.6821 30.4435 36.4755 31.3291 37.9129C32.2192 39.3578 33.4972 40.3473 34.9979 41.0188C37.9201 42.3262 41.8438 42.4859 45.8654 42.4859C49.887 42.4859 53.8108 42.3262 56.7329 41.0188C58.2337 40.3473 59.5116 39.3578 60.4018 37.9129C61.2873 36.4755 61.7308 34.6821 61.7308 32.4965C61.7308 24.0152 55.1413 18.3435 47.0401 17.8425C47.0405 17.8305 47.0406 17.8184 47.0406 17.8063V14.2807ZM45.8654 20.1568C38.2681 20.1568 32.3504 25.158 32.3504 32.4965C32.3504 34.3675 32.729 35.7042 33.3302 36.6801C33.9268 37.6484 34.8002 38.3553 35.9578 38.8733C38.3525 39.9447 41.7738 40.1354 45.8654 40.1354C49.957 40.1354 53.3783 39.9447 55.773 38.8733C56.9307 38.3553 57.804 37.6484 58.4006 36.6801C59.0018 35.7042 59.3804 34.3675 59.3804 32.4965C59.3804 25.158 53.4627 20.1568 45.8654 20.1568ZM38.8141 27.2081C39.4632 27.2081 39.9893 27.7342 39.9893 28.3833V31.9089C39.9893 32.558 39.4632 33.0841 38.8141 33.0841C38.165 33.0841 37.6389 32.558 37.6389 31.9089V28.3833C37.6389 27.7342 38.165 27.2081 38.8141 27.2081ZM52.3291 27.2081C52.9782 27.2081 53.5043 27.7342 53.5043 28.3833V31.9089C53.5043 32.558 52.9782 33.0841 52.3291 33.0841C51.68 33.0841 51.1539 32.558 51.1539 31.9089V28.3833C51.1539 27.7342 51.68 27.2081 52.3291 27.2081ZM33.7371 48.8693C37.6698 48.1502 41.7232 47.7743 45.8654 47.7743C50.0077 47.7743 54.0611 48.1502 57.9938 48.8693C58.6323 48.9861 59.2445 48.5631 59.3612 47.9247C59.478 47.2862 59.055 46.6739 58.4166 46.5572C54.3451 45.8127 50.1501 45.4239 45.8654 45.4239C41.5807 45.4239 37.3858 45.8127 33.3143 46.5572C32.6758 46.6739 32.2528 47.2862 32.3696 47.9247C32.4863 48.5631 33.0986 48.9861 33.7371 48.8693Z" fill="url(#paint0_linear_2995_301)"/>
<defs>
<linearGradient id="paint0_linear_2995_301" x1="37.9327" y1="22.0513" x2="37.9327" y2="22.0513" gradientUnits="userSpaceOnUse">
<stop offset="1" stop-color="#2A6BFD"/>
<stop stop-color="#FF7600"/>
</linearGradient>
</defs>
</svg>

