<svg width="35" height="38" viewBox="0 0 35 38" fill="none" xmlns="http://www.w3.org/2000/svg">
<path d="M21.1669 11.9405H21.4669V11.6405V2.67089C21.4669 2.23135 21.6121 1.88838 21.8444 1.65605C22.0768 1.42372 22.4197 1.27852 22.8593 1.27852H33.0135C33.453 1.27852 33.796 1.42372 34.0284 1.65605C34.2607 1.88838 34.4059 2.23135 34.4059 2.67089V34.3183C34.4059 34.7578 34.2607 35.1008 34.0284 35.3331C33.796 35.5655 33.453 35.7107 33.0135 35.7107H22.8593H12.705H2.55077C2.11124 35.7107 1.76827 35.5655 1.53593 35.3331C1.3036 35.1008 1.1584 34.7578 1.1584 34.3183V19.4254C1.1584 18.9859 1.3036 18.6429 1.53593 18.4106C1.76827 18.1782 2.11123 18.033 2.55077 18.033H11.0126H11.3126V17.733V13.3329C11.3126 12.8933 11.4578 12.5503 11.6902 12.318C11.9225 12.0857 12.2655 11.9405 12.705 11.9405H21.1669ZM4.24315 20.6485H3.94315V20.9485V32.4567V32.7567H4.24315H11.0126H11.3126V32.4567V20.9485V20.6485H11.0126H4.24315ZM14.3974 14.556H14.0974V14.856V19.2562V32.4567V32.7567H14.3974H21.1669H21.4669V32.4567V14.856V14.556H21.1669H14.3974ZM31.3211 32.7567H31.6211V32.4567V4.36326V4.06326H31.3211H24.5516H24.2516V4.36326V13.1636V32.4567V32.7567H24.5516H31.3211Z" fill="black" stroke="white" stroke-width="0.6"/>
</svg>
