<svg width="41" height="49" viewBox="0 0 41 49" fill="none" xmlns="http://www.w3.org/2000/svg">
<path d="M12.968 48.3094C11.3699 48.2227 9.86599 47.5258 8.76661 46.3625C7.45156 45.0973 6.27804 43.693 5.26674 42.1738C3.68707 39.9117 2.4384 37.4359 1.55845 34.8208C0.561784 32.0077 0.0370564 29.0492 0.00548891 26.0647C-0.0710915 23.1365 0.65491 20.243 2.10491 17.6976C3.16625 15.8628 4.6801 14.3306 6.50199 13.2472C8.30375 12.1684 10.3598 11.5877 12.4597 11.5646C14.0427 11.6582 15.5984 12.0201 17.0601 12.6346C18.2257 13.1474 19.4523 13.5079 20.7099 13.7072C22.0977 13.4165 23.4539 12.9908 24.7588 12.4364C26.3034 11.8333 27.9387 11.4956 29.5956 11.4375C29.8167 11.4375 30.0353 11.4375 30.2462 11.4629C33.8796 11.5683 37.259 13.3519 39.3962 16.2921C35.998 18.109 33.9113 21.6837 34.0003 25.5361C33.9667 28.458 35.185 31.2546 37.3477 33.2195C38.3209 34.147 39.4542 34.8899 40.6925 35.413C40.4383 36.1755 40.146 36.9126 39.8359 37.6547C39.1311 39.2949 38.2616 40.8593 37.2409 42.3238C36.2774 43.7908 35.1557 45.1478 33.8961 46.3701C32.7462 47.5111 31.2136 48.1841 29.5956 48.2586C28.2241 48.1978 26.8765 47.8761 25.6255 47.3105C24.2764 46.7229 22.8266 46.4009 21.3555 46.3625C19.8429 46.3922 18.3502 46.7125 16.9584 47.3055C15.7562 47.8478 14.472 48.1854 13.1586 48.3043L12.968 48.3094ZM20.9742 11.4375C20.7836 11.4375 20.593 11.4375 20.4024 11.4146C20.3622 11.1121 20.3411 10.8073 20.3388 10.5022C20.4219 7.9634 21.4142 5.5389 23.1347 3.67017C24.0962 2.59652 25.2618 1.72478 26.5634 1.10563C27.778 0.480375 29.1053 0.104463 30.4674 0C30.5055 0.332958 30.5055 0.658291 30.5055 0.968375C30.4697 3.46721 29.5308 5.86866 27.8622 7.72921C26.2266 9.92211 23.7053 11.2796 20.9742 11.4375Z" fill="black"/>
</svg>
