<svg width="42" height="40" viewBox="0 0 42 40" fill="none" xmlns="http://www.w3.org/2000/svg">
<path d="M39.2376 17.7206H38.4609C38.4609 13.7913 38.5065 9.86198 38.4609 5.93267C38.4153 2.963 36.1308 0.449996 33.0238 0.678519C29.14 1.04408 27.3582 5.38456 29.2771 8.53715C29.8252 9.40533 31.196 8.62861 30.6478 7.76046C29.5056 5.8871 29.9626 3.46555 32.1101 2.55184C33.9375 1.77516 36.1308 2.73446 36.7247 4.65373C37.0902 5.84157 36.9073 7.44079 36.9073 8.6745V17.7211L3.5081 17.7207C2.04588 17.7207 0.8125 18.9086 0.8125 20.4163V21.5586C0.8125 22.7008 1.13249 24.4371 1.49773 25.4879L5.19851 35.5853C5.51848 36.4535 6.29513 37.2301 7.20892 37.5957V39.2406C7.20892 40.2457 8.80822 40.2457 8.80822 39.2406V37.8698H34.2574H34.5314V39.2406C34.5314 40.2457 36.1308 40.2457 36.1308 39.2406V37.3216V37.276C36.7704 36.8649 37.3186 36.2709 37.593 35.5397L41.2938 25.4423C41.7049 24.3915 41.979 22.6552 41.979 21.513V20.3708C41.9331 18.9089 40.7455 17.7206 39.2376 17.7206ZM2.41174 20.4165C2.41174 19.8225 2.91435 19.3199 3.50836 19.3199H39.2834C39.8775 19.3199 40.38 19.8225 40.38 20.4165V21.5588C40.38 21.7873 40.38 22.1069 40.3345 22.381H2.45689C2.41132 22.061 2.41132 21.787 2.41132 21.5588L2.41174 20.4165ZM36.0393 35.0372C35.8108 35.7225 34.9427 36.3165 34.2574 36.3165H8.48847C7.75735 36.3165 6.9351 35.7225 6.70656 35.0372L3.00578 24.9398C2.91431 24.6657 2.82317 24.3002 2.7317 23.9346H40.0602C39.9687 24.3002 39.8775 24.6658 39.7861 24.9398L36.0393 35.0372Z" fill="white"/>
</svg>
