<svg width="36" height="28" viewBox="0 0 36 28" fill="none" xmlns="http://www.w3.org/2000/svg">
<path d="M35.1224 17.5658L31.0667 10.2038V2.97412C31.0667 1.65153 30.0086 0.59375 28.6863 0.59375H7.52616C6.20359 0.59375 5.14582 1.65185 5.14582 2.97412V10.2038L1.09012 17.5658C0.69313 18.183 0.472656 18.9326 0.472656 19.726V22.1063V22.1946V27.3084C0.472656 27.5728 0.69313 27.8373 1.00156 27.8373H3.33799V27.7933C3.33799 27.7493 3.33799 27.7051 3.38195 27.6611V27.6171V27.5289C3.38195 26.9117 3.60244 26.3385 3.95513 25.8978C4.30785 25.5012 4.79279 25.2807 5.27772 25.2807L30.4495 25.2804C31.5076 25.2804 32.3449 26.2942 32.3449 27.5286V27.6168C32.3449 27.6608 32.3449 27.7051 32.3889 27.7491V27.793H34.7253C34.9898 27.793 35.2542 27.5726 35.2542 27.2641L35.2546 22.1946V22.1064V19.726C35.7395 18.9327 35.5191 18.2272 35.1224 17.5658ZM6.15942 2.97412C6.15942 2.22474 6.77657 1.65153 7.482 1.65153H28.6862C29.4356 1.65153 30.0088 2.26869 30.0088 2.97412V9.80716H28.5541V7.95564C28.5541 6.63306 27.496 5.57529 26.1737 5.57529L20.7955 5.57498C19.4729 5.57498 18.4152 6.63306 18.4152 7.95535V9.80708H17.842V7.95557C17.842 6.633 16.7839 5.57521 15.4616 5.57521L9.99514 5.57491C8.67257 5.57491 7.6148 6.633 7.6148 7.95527L7.61448 9.80702H6.15971L6.15942 2.97412ZM27.5841 7.99965V9.80716H19.4286V7.95564C19.4286 7.20627 20.0457 6.58913 20.7951 6.58913H26.2173C26.9667 6.63309 27.5841 7.25026 27.5841 7.99965ZM16.7836 7.99965V9.80716H8.62812V7.95564C8.62812 7.20627 9.24526 6.58913 9.99464 6.58913H15.4168C16.1662 6.63309 16.7836 7.25026 16.7836 7.99965ZM5.93899 10.8652H30.2291L32.9622 15.8468C32.5212 15.7145 32.0806 15.6263 31.5957 15.6263H4.57241C4.08747 15.6263 3.64649 15.7145 3.20589 15.8468L5.93899 10.8652ZM34.6815 26.7794H33.359C33.2707 26.074 33.0062 25.3686 32.5213 24.8397C31.9481 24.2225 31.1987 23.8699 30.4053 23.8699H5.76258C4.96923 23.8699 4.21951 24.2225 3.64666 24.8397C3.2057 25.3686 2.89727 26.03 2.80898 26.7794H1.4864V22.5913H34.6814L34.6815 26.7794ZM34.7258 21.5774H1.48676V19.7259C1.48676 18.0066 2.85328 16.6401 4.57252 16.6401H31.6399C33.3591 16.6401 34.7257 18.0066 34.7257 19.7259L34.7258 21.5774Z" fill="white"/>
</svg>
