<svg width="46" height="34" viewBox="0 0 46 34" fill="none" xmlns="http://www.w3.org/2000/svg">
    <path
        d="M4.44834 33.9368H3.09452L2.13714 27.8457H0V17.5204C0 16.1578 0.39566 15.0001 1.18699 14.0475C1.97836 13.0948 2.93654 12.6184 4.06152 12.6184H5.02857V5.35612C5.02857 3.99344 5.42423 2.83289 6.21557 1.87431C7.00694 0.915811 7.9651 0.436523 9.09009 0.436523H36.1671C37.292 0.436523 38.2502 0.915811 39.0416 1.87431C39.8329 2.83289 40.2286 3.99344 40.2286 5.35612V12.6184H41.1956C42.3206 12.6184 43.2788 13.0977 44.0702 14.0562C44.8615 15.0148 45.2571 16.1754 45.2571 17.538V27.8457H43.12L42.1626 33.9368H40.8088L39.8514 27.8457H5.40572L4.44834 33.9368ZM23.8857 12.6184H37.7143V5.35612C37.7143 4.80948 37.5692 4.3605 37.2791 4.00911C36.989 3.65765 36.6183 3.48199 36.1671 3.48199H23.8857V12.6184ZM7.54285 12.6184H21.3714V3.48199H9.09009C8.63881 3.48199 8.26813 3.65765 7.97802 4.00911C7.68791 4.3605 7.54285 4.80948 7.54285 5.35612V12.6184ZM2.51428 24.8003H42.7429V17.538C42.7429 16.9914 42.5978 16.5424 42.3077 16.191C42.0176 15.8396 41.6469 15.6639 41.1956 15.6639H4.06151C3.61024 15.6639 3.23955 15.8396 2.94945 16.191C2.65934 16.5424 2.51428 16.9914 2.51428 17.538V24.8003Z"
        fill="black" />
</svg>