<svg width="20" height="20" viewBox="0 0 20 20" fill="none" xmlns="http://www.w3.org/2000/svg">
<path fill-rule="evenodd" clip-rule="evenodd" d="M3.33398 6.66699C2.87375 6.66699 2.50065 7.04009 2.50065 7.50033V15.8337C2.50065 16.2939 2.87375 16.667 3.33398 16.667H16.6673C17.1276 16.667 17.5006 16.2939 17.5006 15.8337V7.50033C17.5006 7.04009 17.1276 6.66699 16.6673 6.66699H3.33398ZM0.833984 7.50033C0.833984 6.11961 1.95327 5.00033 3.33398 5.00033H16.6673C18.048 5.00033 19.1673 6.11961 19.1673 7.50033V15.8337C19.1673 17.2144 18.048 18.3337 16.6673 18.3337H3.33398C1.95327 18.3337 0.833984 17.2144 0.833984 15.8337V7.50033Z" fill="#FF8700"/>
<path fill-rule="evenodd" clip-rule="evenodd" d="M6.56622 2.39923C7.03506 1.93038 7.67094 1.66699 8.33398 1.66699H11.6673C12.3304 1.66699 12.9662 1.93038 13.4351 2.39923C13.9039 2.86807 14.1673 3.50395 14.1673 4.16699V17.5003C14.1673 17.9606 13.7942 18.3337 13.334 18.3337C12.8737 18.3337 12.5007 17.9606 12.5007 17.5003V4.16699C12.5007 3.94598 12.4129 3.73402 12.2566 3.57774C12.1003 3.42146 11.8883 3.33366 11.6673 3.33366H8.33398C8.11297 3.33366 7.90101 3.42146 7.74473 3.57774C7.58845 3.73402 7.50065 3.94598 7.50065 4.16699V17.5003C7.50065 17.9606 7.12755 18.3337 6.66732 18.3337C6.20708 18.3337 5.83398 17.9606 5.83398 17.5003V4.16699C5.83398 3.50395 6.09738 2.86807 6.56622 2.39923Z" fill="#FF8700"/>
</svg>
