<svg width="32" height="32" viewBox="0 0 32 32" fill="none" xmlns="http://www.w3.org/2000/svg">
<mask id="mask0_1197_2762" style="mask-type:alpha" maskUnits="userSpaceOnUse" x="0" y="0" width="32" height="32">
<rect width="31.62" height="31.62" fill="#D9D9D9"/>
</mask>
<g mask="url(#mask0_1197_2762)">
<path d="M6.58715 28.985C5.86252 28.985 5.2422 28.727 4.72618 28.211C4.21016 27.695 3.95215 27.0746 3.95215 26.35V7.90501C3.95215 7.18038 4.21016 6.56006 4.72618 6.04404C5.2422 5.52802 5.86252 5.27001 6.58715 5.27001H7.90465V2.63501H10.5396V5.27001H21.0796V2.63501H23.7146V5.27001H25.0321C25.7568 5.27001 26.3771 5.52802 26.8931 6.04404C27.4091 6.56006 27.6671 7.18038 27.6671 7.90501V26.35C27.6671 27.0746 27.4091 27.695 26.8931 28.211C26.3771 28.727 25.7568 28.985 25.0321 28.985H6.58715ZM6.58715 26.35H25.0321V13.175H6.58715V26.35ZM6.58715 10.54H25.0321V7.90501H6.58715V10.54Z" fill="#1C1B1F"/>
</g>
</svg>
