<svg width="28" height="32" viewBox="0 0 28 32" fill="none" xmlns="http://www.w3.org/2000/svg">
    <path
        d="M2.8269 31.9039C2.02147 31.9039 1.34897 31.6341 0.809372 31.0945C0.269791 30.5549 0 29.8824 0 29.077V6.73077C0 5.92535 0.269791 5.25287 0.809372 4.71326C1.34897 4.17365 2.02147 3.90387 2.8269 3.90387H5.92305V0H7.80768V3.90387H20.3269V0H22.077V3.90387H25.1731C25.9785 3.90387 26.651 4.17365 27.1906 4.71326C27.7302 5.25287 28 5.92535 28 6.73077V29.077C28 29.8824 27.7302 30.5549 27.1906 31.0945C26.651 31.6341 25.9785 31.9039 25.1731 31.9039H2.8269ZM2.8269 30.1539H25.1731C25.4423 30.1539 25.6891 30.0417 25.9135 29.8173C26.1378 29.593 26.25 29.3461 26.25 29.077V13.7308H1.75V29.077C1.75 29.3461 1.86218 29.593 2.08652 29.8173C2.31091 30.0417 2.55771 30.1539 2.8269 30.1539ZM1.75 11.9808H26.25V6.73077C26.25 6.46161 26.1378 6.21478 25.9135 5.99042C25.6891 5.76605 25.4423 5.65387 25.1731 5.65387H2.8269C2.55771 5.65387 2.31091 5.76605 2.08652 5.99042C1.86218 6.21478 1.75 6.46161 1.75 6.73077V11.9808Z"
        fill="black" />
</svg>