<svg width="40" height="40" viewBox="0 0 40 40" fill="none" xmlns="http://www.w3.org/2000/svg">
    <path
        d="M13.3333 14.9998H26.6667M13.3333 21.6665H23.3333M15 29.9998H10C8.67392 29.9998 7.40215 29.4731 6.46447 28.5354C5.52678 27.5977 5 26.3259 5 24.9998V11.6665C5 10.3404 5.52678 9.06865 6.46447 8.13097C7.40215 7.19329 8.67392 6.6665 10 6.6665H30C31.3261 6.6665 32.5979 7.19329 33.5355 8.13097C34.4732 9.06865 35 10.3404 35 11.6665V24.9998C35 26.3259 34.4732 27.5977 33.5355 28.5354C32.5979 29.4731 31.3261 29.9998 30 29.9998H25L20 34.9998L15 29.9998Z"
        stroke="black" stroke-width="3" stroke-linecap="round" stroke-linejoin="round" />
    <circle cx="32.5" cy="8.5" r="4.5" fill="#FF8700" />
</svg>