<svg width="38" height="34" viewBox="0 0 38 34" fill="none" xmlns="http://www.w3.org/2000/svg">
<path d="M30.7949 4.74365H12.5349C10.7479 4.74365 9.03401 5.45355 7.77039 6.71717C6.50677 7.98079 5.79688 9.69463 5.79688 11.4817V27.2621C5.79688 29.0491 6.50677 30.7629 7.77039 32.0266C9.03401 33.2902 10.7479 34.0001 12.5349 34.0001H30.7949C32.5819 34.0001 34.2957 33.2902 35.5594 32.0266C36.823 30.7629 37.5329 29.0491 37.5329 27.2621V11.4817C37.5329 9.69463 36.823 7.98079 35.5594 6.71717C34.2957 5.45355 32.5819 4.74365 30.7949 4.74365ZM34.8377 27.2621C34.8377 28.3343 34.4117 29.3626 33.6536 30.1208C32.8954 30.8789 31.8671 31.3049 30.7949 31.3049H12.5349C11.4627 31.3049 10.4344 30.8789 9.67619 30.1208C8.91802 29.3626 8.49208 28.3343 8.49208 27.2621V11.4817C8.49208 10.4094 8.91802 9.38114 9.67619 8.62296C10.4344 7.86479 11.4627 7.43885 12.5349 7.43885H30.7949C31.8671 7.43885 32.8954 7.86479 33.6536 8.62296C34.4117 9.38114 34.8377 10.4094 34.8377 11.4817V27.2621Z" fill="black"/>
<path d="M16.4163 2.6952C16.7737 2.6952 17.1165 2.55322 17.3692 2.3005C17.6219 2.04777 17.7639 1.70501 17.7639 1.3476C17.7639 0.990195 17.6219 0.647427 17.3692 0.394703C17.1165 0.141979 16.7737 0 16.4163 0H7.64342C5.67377 0.07031 3.81218 0.918013 2.46604 2.35759C1.11991 3.79717 0.398862 5.71139 0.460705 7.68133V16.9393C0.460705 17.2968 0.602684 17.6395 0.855408 17.8922C1.10813 18.145 1.4509 18.2869 1.80831 18.2869C2.16571 18.2869 2.50848 18.145 2.7612 17.8922C3.01393 17.6395 3.15591 17.2968 3.15591 16.9393V7.68133C3.09344 6.42596 3.53035 5.1969 4.37119 4.26264C5.21202 3.32838 6.38843 2.76486 7.64342 2.6952H16.4163Z" fill="black"/>
</svg>
