<svg width="35" height="38" viewBox="0 0 35 38" fill="none" xmlns="http://www.w3.org/2000/svg">
<path d="M4.29431 22.6668L8.00842 10.3085H34.3024L30.3654 23.3957C30.3653 23.396 30.3652 23.3963 30.3651 23.3967C30.1738 24.0164 29.8251 24.5044 29.3158 24.871C28.8017 25.241 28.2396 25.4234 27.6215 25.4234H4.007C3.22116 25.4234 2.55599 25.1476 1.99524 24.5879C1.43451 24.0281 1.1584 23.3644 1.1584 22.5805V3.72257C1.1584 2.93862 1.43451 2.27489 1.99524 1.71516C2.55599 1.15542 3.22116 0.87959 4.007 0.87959H13.3287L16.3895 3.93489L16.4773 4.02257H16.6014H29.1958C29.9817 4.02257 30.6468 4.2984 31.2076 4.85814C31.6953 5.34503 31.9677 5.91061 32.0304 6.56555H15.4267L12.366 3.51025L12.2781 3.42257H12.154H4.007H3.707V3.72257V22.5805L4.29431 22.6668ZM7.02573 22.4941L6.90962 22.8805H7.31304H27.6215H27.8446L27.9088 22.6668L30.7426 13.2379L30.8587 12.8515H30.4553H10.1468H9.92368L9.85947 13.0652L7.02573 22.4941Z" fill="#1C1B1F" stroke="white" stroke-width="0.6"/>
</svg>
