<svg width="100" height="100" viewBox="0 0 100 100" fill="none" xmlns="http://www.w3.org/2000/svg">
    <mask id="mask0_1458_24" style="mask-type:alpha" maskUnits="userSpaceOnUse" x="0" y="0"
        width="100" height="100">
        <rect x="0.3" y="0.3" width="99.4" height="99.4" fill="#D9D9D9" stroke="white"
            stroke-width="0.6" />
    </mask>
    <g mask="url(#mask0_1458_24)">
        <path
            d="M19.8333 79.1667V80.1667H20.8333H79.1667H80.1667V79.1667V37.5V36.5H79.1667H63.5V20.8333V19.8333H62.5H20.8333H19.8333V20.8333V79.1667ZM20.8333 86.5C18.809 86.5 17.1009 85.7909 15.655 84.345C14.2091 82.8991 13.5 81.191 13.5 79.1667V20.8333C13.5 18.809 14.2091 17.1009 15.655 15.655C17.1009 14.2091 18.809 13.5 20.8333 13.5H66.2524L86.5 33.7475V79.1667C86.5 81.191 85.7909 82.8991 84.345 84.345C82.8991 85.7909 81.191 86.5 79.1667 86.5H20.8333ZM69.8333 63.5V69.8333H30.1667V63.5H69.8333ZM49 30.1667V36.5H30.1667V30.1667H49ZM69.8333 46.8333V53.1667H30.1667V46.8333H69.8333Z"
            fill="#1C1B1F" stroke="white" stroke-width="2" />
    </g>
</svg>