<svg width="25" height="26" viewBox="0 0 25 26" fill="none" xmlns="http://www.w3.org/2000/svg">
    <path
        d="M25.0004 13.0002C25.0004 19.8544 19.4247 25.4301 12.5705 25.4301C5.71632 25.4301 0.140625 19.8544 0.140625 13.0002C0.140625 6.146 5.71632 0.570312 12.5705 0.570312C19.4247 0.570312 25.0004 6.146 25.0004 13.0002ZM22.8696 13.0002C22.8696 7.31796 18.2527 2.70115 12.5705 2.70115C6.88828 2.70115 2.27146 7.31796 2.27146 13.0002C2.27146 18.6824 6.88828 23.2992 12.5705 23.2992C18.2527 23.3348 22.8696 18.6824 22.8696 13.0002Z"
        fill="#E8804C" />
    <path
        d="M12.5693 11.189C11.9656 11.189 11.5039 11.6507 11.5039 12.2544V17.688C11.5039 18.2918 11.9656 18.7534 12.5693 18.7534C13.1731 18.7534 13.6347 18.2918 13.6347 17.688V12.2544C13.6347 11.6507 13.1731 11.189 12.5693 11.189Z"
        fill="#E8804C" />
    <path
        d="M12.5693 7.28247C12.2852 7.28247 12.0011 7.38901 11.8235 7.6021C11.6104 7.77967 11.5039 8.06378 11.5039 8.34789C11.5039 8.41892 11.5039 8.48995 11.5394 8.56097C11.5394 8.632 11.5749 8.70303 11.6104 8.77405C11.646 8.84509 11.6815 8.88059 11.717 8.95162C11.7525 9.02266 11.788 9.05816 11.859 9.12919C12.2497 9.51984 12.96 9.51984 13.3506 9.12919C13.3861 9.09368 13.4572 9.02266 13.4927 8.95162C13.5282 8.88059 13.5637 8.84509 13.5992 8.77405C13.6347 8.70303 13.6347 8.632 13.6703 8.56097C13.6703 8.48994 13.7058 8.41892 13.7058 8.34789C13.7058 8.06378 13.5992 7.77967 13.3861 7.6021C13.1375 7.38901 12.8534 7.28247 12.5693 7.28247Z"
        fill="#E8804C" />
</svg>