<svg xmlns="http://www.w3.org/2000/svg"  viewBox="0 0 48 48" width="144px" height="144px"><linearGradient id="SVGID_1_" x1="37.732" x2="7.833" y1="10.268" y2="40.167" gradientUnits="userSpaceOnUse"><stop offset="0" stop-color="#fea460"/><stop offset=".033" stop-color="#feaa6a"/><stop offset=".197" stop-color="#fec497"/><stop offset=".362" stop-color="#ffd9bd"/><stop offset=".525" stop-color="#ffeada"/><stop offset=".687" stop-color="#fff5ee"/><stop offset=".846" stop-color="#fffdfb"/><stop offset="1" stop-color="#fff"/></linearGradient><path fill="url(#SVGID_1_)" d="M32.723,13.289h-9.697L18.29,9.342c-0.714-0.595-1.614-0.921-2.543-0.921H8.48c-1.646,0-2.98,1.334-2.98,2.98	v11.666v6.675v6.857c0,1.646,1.334,2.98,2.98,2.98H39.52c1.646,0,2.98-1.334,2.98-2.98V16.27c0-1.646-1.334-2.98-2.98-2.98h-1.073	H32.723z"/><path fill="none" stroke="#fe7c12" stroke-linecap="round" stroke-linejoin="round" stroke-miterlimit="10" stroke-width="3" d="M5.5,29.771V36.5c0,1.657,1.343,3,3,3h31c1.657,0,3-1.343,3-3v-20c0-1.657-1.343-3-3-3h-1.053"/><path fill="none" stroke="#fe7c12" stroke-linecap="round" stroke-linejoin="round" stroke-miterlimit="10" stroke-width="3" d="M32.723,13.5H23.5l-4.887-4.073C17.894,8.828,16.988,8.5,16.052,8.5H8.5c-1.657,0-3,1.343-3,3v11.67"/><path fill="none" stroke="#fe7c12" stroke-linecap="round" stroke-linejoin="round" stroke-miterlimit="10" stroke-width="3" d="M6,16.5h12.053c0.936,0,1.841-0.328,2.56-0.927l2.339-1.95"/></svg>