<svg width="61" height="61" viewBox="0 0 61 61" fill="none" xmlns="http://www.w3.org/2000/svg">
<path d="M55.422 25.5221H53.3747V25.4166H30.4997V35.5833H44.8639C42.7683 41.5015 37.1372 45.7499 30.4997 45.7499C22.0779 45.7499 15.2497 38.9217 15.2497 30.4999C15.2497 22.0781 22.0779 15.2499 30.4997 15.2499C34.3872 15.2499 37.9239 16.7165 40.6168 19.112L47.8059 11.9229C43.2665 7.69227 37.1944 5.08325 30.4997 5.08325C16.4633 5.08325 5.08301 16.4636 5.08301 30.4999C5.08301 44.5363 16.4633 55.9166 30.4997 55.9166C44.536 55.9166 55.9163 44.5363 55.9163 30.4999C55.9163 28.7957 55.741 27.1322 55.422 25.5221Z" fill="#FFC107"/>
<path d="M8.01367 18.6697L16.3643 24.7939C18.6239 19.1997 24.0961 15.2499 30.4998 15.2499C34.3873 15.2499 37.924 16.7165 40.6169 19.112L47.806 11.9229C43.2666 7.69227 37.1945 5.08325 30.4998 5.08325C20.7373 5.08325 12.271 10.5949 8.01367 18.6697Z" fill="#FF3D00"/>
<path d="M30.5002 55.9166C37.0654 55.9166 43.0307 53.4041 47.5408 49.3184L39.6744 42.6618C37.1225 44.5947 33.9505 45.7499 30.5002 45.7499C23.8894 45.7499 18.2761 41.5345 16.1614 35.6519L7.87305 42.0378C12.0795 50.269 20.622 55.9166 30.5002 55.9166Z" fill="#4CAF50"/>
<path d="M55.4223 25.5222H53.375V25.4167H30.5V35.5834H44.8642C43.8577 38.4263 42.029 40.8777 39.6703 42.6632L39.6741 42.6607L47.5406 49.3173C46.984 49.8231 55.9167 43.2084 55.9167 30.5001C55.9167 28.7959 55.7413 27.1324 55.4223 25.5222Z" fill="#1976D2"/>
</svg>
