<svg width="34" height="34" viewBox="0 0 34 34" fill="none" xmlns="http://www.w3.org/2000/svg">
    <path
        d="M11.604 1H4.02971C2.35645 1 1 2.35645 1 4.02971V11.604C1 13.2773 2.35645 14.6337 4.02971 14.6337H11.604C13.2773 14.6337 14.6337 13.2773 14.6337 11.604V4.02971C14.6337 2.35645 13.2773 1 11.604 1ZM12.6139 11.604C12.6139 12.1617 12.1617 12.6139 11.604 12.6139H4.02971C3.47196 12.6139 3.01981 12.1617 3.01981 11.604V4.02971C3.01981 3.47195 3.47196 3.01981 4.02971 3.01981H11.604C12.1617 3.01981 12.6139 3.47195 12.6139 4.02971V11.604Z"
        fill="black" stroke="black" />
    <path
        d="M29.5903 1H22.016C20.3428 1 18.9863 2.35645 18.9863 4.02971V11.604C18.9863 13.2773 20.3428 14.6337 22.016 14.6337H29.5903C31.2636 14.6337 32.62 13.2773 32.62 11.604V4.02971C32.62 2.35645 31.2636 1 29.5903 1ZM30.6002 11.604C30.6002 12.1617 30.1481 12.6139 29.5903 12.6139H22.016C21.4583 12.6139 21.0061 12.1617 21.0061 11.604V4.02971C21.0061 3.47195 21.4583 3.01981 22.016 3.01981H29.5903C30.1481 3.01981 30.6002 3.47195 30.6002 4.02971V11.604Z"
        fill="black" stroke="black" />
    <path
        d="M11.604 18.9863H4.02971C2.35645 18.9863 1 20.3428 1 22.016V29.5903C1 31.2636 2.35645 32.62 4.02971 32.62L11.604 32.62C13.2773 32.62 14.6337 31.2636 14.6337 29.5903V22.016C14.6337 20.3428 13.2773 18.9863 11.604 18.9863ZM12.6139 29.5903C12.6139 30.1481 12.1617 30.6002 11.604 30.6002H4.02971C3.47196 30.6002 3.01981 30.1481 3.01981 29.5903V22.016C3.01981 21.4583 3.47196 21.0061 4.02971 21.0061H11.604C12.1617 21.0061 12.6139 21.4583 12.6139 22.016V29.5903Z"
        fill="black" stroke="black" />
    <path
        d="M29.5903 18.9863H22.016C20.3428 18.9863 18.9863 20.3428 18.9863 22.016V29.5903C18.9863 31.2636 20.3428 32.62 22.016 32.62L29.5903 32.62C31.2636 32.62 32.62 31.2636 32.62 29.5903V22.016C32.62 20.3428 31.2636 18.9863 29.5903 18.9863ZM30.6002 29.5903C30.6002 30.1481 30.1481 30.6002 29.5903 30.6002H22.016C21.4583 30.6002 21.0061 30.1481 21.0061 29.5903V22.016C21.0061 21.4583 21.4583 21.0061 22.016 21.0061H29.5903C30.1481 21.0061 30.6002 21.4583 30.6002 22.016V29.5903Z"
        fill="black" stroke="black" />
</svg>