<svg width="44" height="44" viewBox="0 0 44 44" fill="none" xmlns="http://www.w3.org/2000/svg">
    <path
        d="M42.9548 19.4906L31.3619 7.81859C28.3275 4.79176 24.216 3.09279 19.93 3.09473C15.6441 3.09666 11.5341 4.79933 8.50248 7.8289L6.13232 10.2747C5.94201 10.4714 5.83763 10.7356 5.84214 11.0093C5.84665 11.2829 5.95969 11.5436 6.15639 11.7339C6.35308 11.9242 6.61732 12.0286 6.89098 12.0241C7.16463 12.0196 7.42529 11.9065 7.6156 11.7098L9.96857 9.28124C11.0046 8.24334 12.1963 7.3735 13.5006 6.70312L21.9225 15.125L5.17154 31.8656C4.94782 32.0891 4.77033 32.3545 4.64924 32.6466C4.52815 32.9387 4.46582 33.2518 4.46582 33.568C4.46582 33.8843 4.52815 34.1974 4.64924 34.4895C4.77033 34.7816 4.94782 35.047 5.17154 35.2705L8.72763 38.8266C8.95108 39.05 9.21635 39.2273 9.50831 39.3482C9.80026 39.4692 10.1132 39.5314 10.4292 39.5314C10.7452 39.5314 11.0581 39.4692 11.3501 39.3482C11.642 39.2273 11.9073 39.05 12.1308 38.8266L28.8748 22.0791L34.6189 27.8231C34.8423 28.0466 35.1076 28.2238 35.3996 28.3448C35.6915 28.4657 36.0044 28.528 36.3204 28.528C36.6365 28.528 36.9494 28.4657 37.2413 28.3448C37.5333 28.2238 37.7986 28.0466 38.022 27.8231L42.9514 22.892C43.4026 22.4413 43.6565 21.8298 43.6571 21.192C43.6577 20.5542 43.4051 19.9423 42.9548 19.4906ZM10.6733 37.3673C10.6413 37.3993 10.6034 37.4246 10.5617 37.4419C10.52 37.4592 10.4752 37.4682 10.4301 37.4682C10.3849 37.4682 10.3402 37.4592 10.2984 37.4419C10.2567 37.4246 10.2188 37.3993 10.1869 37.3673L6.63076 33.8112C6.5988 33.7793 6.57344 33.7414 6.55615 33.6997C6.53885 33.6579 6.52994 33.6132 6.52994 33.568C6.52994 33.5229 6.53885 33.4781 6.55615 33.4364C6.57344 33.3947 6.5988 33.3568 6.63076 33.3248L18.5623 21.3916L22.6031 25.4375L10.6733 37.3673ZM28.1461 19.8911L24.0623 23.9748L20.0198 19.9375L24.1036 15.8537C24.1995 15.758 24.2755 15.6442 24.3274 15.519C24.3793 15.3938 24.406 15.2597 24.406 15.1241C24.406 14.9886 24.3793 14.8544 24.3274 14.7292C24.2755 14.604 24.1995 14.4903 24.1036 14.3945L15.5614 5.84374C18.0368 5.03713 20.6871 4.93131 23.2189 5.53802C25.7507 6.14473 28.0652 7.44029 29.9061 9.28124L37.747 17.1755L32.3123 22.5998L29.6036 19.8911C29.4102 19.698 29.1481 19.5895 28.8748 19.5895C28.6015 19.5895 28.3394 19.698 28.1461 19.8911ZM41.4939 21.438L36.5628 26.3708C36.5309 26.4027 36.493 26.4281 36.4512 26.4454C36.4095 26.4627 36.3648 26.4716 36.3196 26.4716C36.2744 26.4716 36.2297 26.4627 36.1879 26.4454C36.1462 26.4281 36.1083 26.4027 36.0764 26.3708L33.7715 24.0625L39.1959 18.6364L41.4939 20.9498C41.5574 21.0142 41.593 21.1009 41.593 21.1913C41.593 21.2817 41.5574 21.3685 41.4939 21.4328V21.438Z"
        fill="black" />
</svg>