<svg width="36" height="36" viewBox="0 0 36 36" fill="none" xmlns="http://www.w3.org/2000/svg">
    <path
        d="M16.4097 3.37459C16.8316 2.95278 17.4038 2.71582 18.0004 2.71582C18.5971 2.71582 19.1693 2.95278 19.5912 3.37459L24.7504 8.53384V5.62459C24.7504 5.32622 24.869 5.04007 25.0799 4.82909C25.2909 4.61812 25.5771 4.49959 25.8754 4.49959H28.1254C28.4238 4.49959 28.71 4.61812 28.9209 4.82909C29.1319 5.04007 29.2504 5.32622 29.2504 5.62459V13.0338L34.5469 18.3281C34.6515 18.4327 34.7345 18.5569 34.7911 18.6935C34.8477 18.8302 34.8769 18.9767 34.8769 19.1246C34.8769 19.2725 34.8477 19.419 34.7911 19.5557C34.7345 19.6923 34.6515 19.8165 34.5469 19.9211C34.4423 20.0257 34.3182 20.1087 34.1815 20.1653C34.0448 20.2219 33.8984 20.251 33.7504 20.251C33.6025 20.251 33.456 20.2219 33.3194 20.1653C33.1827 20.1087 33.0585 20.0257 32.9539 19.9211L18.0004 4.96534L6.75044 16.2153V30.3746C6.75044 30.673 6.86897 30.9591 7.07995 31.1701C7.29093 31.3811 7.57708 31.4996 7.87544 31.4996H16.8754C17.1738 31.4996 17.46 31.6181 17.6709 31.8291C17.8819 32.0401 18.0004 32.3262 18.0004 32.6246C18.0004 32.923 17.8819 33.2091 17.6709 33.4201C17.46 33.6311 17.1738 33.7496 16.8754 33.7496H7.87544C6.98034 33.7496 6.12189 33.394 5.48896 32.7611C4.85602 32.1281 4.50044 31.2697 4.50044 30.3746V18.4653L3.04694 19.9211C2.94235 20.0257 2.81817 20.1087 2.68151 20.1653C2.54484 20.2219 2.39837 20.251 2.25044 20.251C2.10252 20.251 1.95605 20.2219 1.81938 20.1653C1.68272 20.1087 1.55854 20.0257 1.45394 19.9211C1.34935 19.8165 1.26638 19.6923 1.20977 19.5557C1.15316 19.419 1.12402 19.2725 1.12402 19.1246C1.12402 18.9767 1.15316 18.8302 1.20977 18.6935C1.26638 18.5569 1.34935 18.4327 1.45394 18.3281L16.4097 3.37459Z"
        fill="black" />
    <path
        d="M27 33.75C30.728 33.75 33.75 30.728 33.75 27C33.75 23.272 30.728 20.25 27 20.25C23.272 20.25 20.25 23.272 20.25 27C20.25 30.728 23.272 33.75 27 33.75Z"
        stroke="black" stroke-width="1.3" stroke-linecap="round" stroke-linejoin="round" />
    <path
        d="M29.0256 24.6393C28.5632 24.1769 27.7492 23.8556 27.0006 23.8353M27.0006 23.8353C26.1096 23.811 25.3131 24.214 25.3131 25.3143C25.3131 27.3393 29.0256 26.3268 29.0256 28.3518C29.0256 29.5067 28.0374 30.0028 27.0006 29.9657M27.0006 23.8353V22.6143M24.9756 29.0268C25.4103 29.6073 26.2196 29.938 27.0006 29.9657M27.0006 29.9657V31.3893"
        stroke="black" stroke-width="1.3" stroke-linecap="round" stroke-linejoin="round" />
</svg>