<svg width="24" height="24" viewBox="0 0 24 24" fill="none" xmlns="http://www.w3.org/2000/svg">
<path d="M22.5633 8.2738L22.5633 8.27402C22.5261 9.59617 21.983 10.8536 21.0461 11.7872L17.789 15.0442L22.5633 8.2738ZM22.5633 8.2738C22.5825 7.56754 22.4577 6.86477 22.1964 6.20833C21.9352 5.5519 21.5429 4.95555 21.0437 4.45564L21.0436 4.45556C20.5623 3.97406 19.9908 3.5921 19.3618 3.3315C18.7329 3.0709 18.0587 2.93677 17.3779 2.93677C16.6971 2.93677 16.0229 3.0709 15.3939 3.3315C14.765 3.59209 14.1935 3.97404 13.7122 4.45553C13.7122 4.45554 13.7122 4.45555 13.7122 4.45556L12.681 5.48678C12.5285 5.63921 12.4429 5.84595 12.4429 6.06153C12.4429 6.2771 12.5285 6.48384 12.681 6.63627C12.8334 6.7887 13.0401 6.87434 13.2557 6.87434C13.4713 6.87434 13.678 6.7887 13.8304 6.63627L14.8597 5.60706C15.5319 4.96573 16.4283 4.61266 17.3573 4.62333C18.2874 4.63402 19.1762 5.00834 19.8337 5.66618C20.4912 6.32402 20.8651 7.2131 20.8753 8.14312C20.8855 9.07222 20.5319 9.96844 19.8902 10.6403L16.6344 13.8952L16.634 13.8956C16.3043 14.2269 15.9122 14.4895 15.4804 14.6684C15.0486 14.8472 14.5857 14.9387 14.1183 14.9376H14.1179C13.6422 14.9373 13.1715 14.8417 12.7334 14.6564C12.2954 14.471 11.899 14.1997 11.5676 13.8585C11.2362 13.5174 10.9766 13.1132 10.8041 12.6699C10.6316 12.2267 10.5497 11.7533 10.5633 11.2779L10.5633 11.2775C10.5691 11.0622 10.4892 10.8534 10.3412 10.697L10.1596 10.8689M22.5633 8.2738L10.3134 11.2707C10.3174 11.1217 10.2621 10.9772 10.1596 10.8689M10.1596 10.8689L10.3412 10.697C10.1931 10.5406 9.98906 10.4494 9.77379 10.4433L9.77379 10.4432H9.76679H9.75095M10.1596 10.8689L9.75095 10.4432M9.75095 10.4432C9.75092 10.4432 9.75089 10.4432 9.75086 10.4432C9.5391 10.4432 9.33569 10.5258 9.18395 10.6735L9.35832 10.8527L9.18395 10.6735C9.03226 10.8212 8.94418 11.0222 8.93846 11.2338L9.75095 10.4432ZM14.1168 16.5626H14.1166C13.424 16.5621 12.7385 16.4228 12.1006 16.1529C11.4627 15.883 10.8853 15.488 10.4026 14.9913C9.91992 14.4945 9.54166 13.9061 9.29018 13.2607C9.03874 12.6155 8.91914 11.9263 8.93845 11.2341L14.1168 16.5626ZM14.1168 16.5626L14.1207 16.5626L14.1215 16.3126V16.5626H14.121C14.8024 16.5647 15.4774 16.4316 16.107 16.171C16.7365 15.9105 17.3081 15.5277 17.7886 15.0447L14.1168 16.5626ZM14.2508 13.5561H14.2349H14.2279L14.2279 13.556C14.0127 13.5499 13.8086 13.4587 13.6605 13.3023C13.5125 13.1459 13.4326 12.9371 13.4384 12.7218L13.4385 12.7213C13.4591 12.0085 13.2652 11.3059 12.8818 10.7047C12.4984 10.1034 11.9433 9.63117 11.2883 9.34918C10.6333 9.06719 9.90872 8.98846 9.20846 9.12319C8.50821 9.25792 7.86457 9.5999 7.36099 10.1048L7.36081 10.105L4.10581 13.3618L4.10576 13.3619C3.60816 13.8595 3.26924 14.4934 3.13183 15.1836C2.99441 15.8737 3.06467 16.5891 3.33373 17.2393C3.60278 17.8896 4.05856 18.4455 4.64345 18.8367C5.22834 19.228 5.91609 19.4371 6.61979 19.4376H6.62049C7.08871 19.4393 7.55258 19.3479 7.98516 19.1687C8.41775 18.9895 8.81041 18.7262 9.14034 18.394L9.14095 18.3933L9.78965 17.7446L10.1622 17.3655C10.2374 17.289 10.327 17.2282 10.4258 17.1865C10.5246 17.1447 10.6307 17.123 10.738 17.1225C10.8093 17.1222 10.8802 17.1313 10.9489 17.1494L11.1329 17.1085L11.0558 17.1856C11.153 17.2264 11.2413 17.2856 11.3159 17.3602C11.3918 17.4359 11.4519 17.526 11.4928 17.6252C11.5337 17.7243 11.5546 17.8306 11.5542 17.9378C11.5539 18.0451 11.5323 18.1512 11.4907 18.2501C11.4492 18.3486 11.3887 18.438 11.3127 18.5131C11.3124 18.5133 11.3122 18.5136 11.3119 18.5138L10.2826 19.5432C10.2824 19.5433 10.2823 19.5434 10.2822 19.5435C9.80194 20.0267 9.23054 20.4098 8.60114 20.6705C7.97176 20.9313 7.29691 21.0645 6.61567 21.0626C6.61549 21.0626 6.6153 21.0626 6.61512 21.0626L6.61586 20.8126L14.2508 13.5561ZM14.2508 13.5561C14.2508 13.5561 14.2508 13.5561 14.2509 13.5561M14.2508 13.5561H14.2509M14.2509 13.5561C14.4626 13.5561 14.666 13.4735 14.8178 13.3258M14.2509 13.5561L14.8178 13.3258M14.8178 13.3258C14.9694 13.1782 15.0575 12.9772 15.0633 12.7656M14.8178 13.3258L15.0633 12.7656M15.0633 12.7656C15.0927 11.7278 14.8098 10.705 14.2512 9.82984M15.0633 12.7656L14.2512 9.82984M14.2512 9.82984C13.6927 8.95464 12.8842 8.26732 11.9305 7.85691M14.2512 9.82984L11.9305 7.85691M11.9305 7.85691C10.9768 7.4465 9.92182 7.33191 8.90225 7.52799M11.9305 7.85691L8.90225 7.52799M8.90225 7.52799C7.88268 7.72406 6.94548 8.22177 6.21203 8.95664L8.90225 7.52799Z" fill="black" stroke="black" stroke-width="0.5"/>
</svg>
