<svg width="38" height="24" viewBox="0 0 38 24" fill="none" xmlns="http://www.w3.org/2000/svg">
    <path
        d="M36 3.5H2C1.17157 3.5 0.5 2.82843 0.5 2C0.5 1.17157 1.17157 0.5 2 0.5H36C36.8284 0.5 37.5 1.17157 37.5 2C37.5 2.82843 36.8284 3.5 36 3.5Z"
        fill="black" stroke="black" stroke-linecap="round" />
    <path
        d="M26 13.5H2C1.17157 13.5 0.5 12.8284 0.5 12C0.5 11.1716 1.17157 10.5 2 10.5H26C26.8284 10.5 27.5 11.1716 27.5 12C27.5 12.8284 26.8284 13.5 26 13.5Z"
        fill="black" stroke="black" stroke-linecap="round" />
    <path
        d="M14 23.5H2C1.17157 23.5 0.5 22.8284 0.5 22C0.5 21.1716 1.17157 20.5 2 20.5H14C14.8284 20.5 15.5 21.1716 15.5 22C15.5 22.8284 14.8284 23.5 14 23.5Z"
        fill="black" stroke="black" stroke-linecap="round" />
</svg>