<svg width="40" height="40" viewBox="0 0 40 40" fill="none" xmlns="http://www.w3.org/2000/svg">
    <path
        d="M16.6665 31.6667C16.6665 30.7826 17.0177 29.9348 17.6428 29.3096C18.2679 28.6845 19.1158 28.3333 19.9998 28.3333C20.8839 28.3333 21.7317 28.6845 22.3569 29.3096C22.982 29.9348 23.3332 30.7826 23.3332 31.6667C23.3332 32.5507 22.982 33.3986 22.3569 34.0237C21.7317 34.6488 20.8839 35 19.9998 35C19.1158 35 18.2679 34.6488 17.6428 34.0237C17.0177 33.3986 16.6665 32.5507 16.6665 31.6667ZM16.6665 20C16.6665 19.1159 17.0177 18.2681 17.6428 17.643C18.2679 17.0179 19.1158 16.6667 19.9998 16.6667C20.8839 16.6667 21.7317 17.0179 22.3569 17.643C22.982 18.2681 23.3332 19.1159 23.3332 20C23.3332 20.8841 22.982 21.7319 22.3569 22.357C21.7317 22.9821 20.8839 23.3333 19.9998 23.3333C19.1158 23.3333 18.2679 22.9821 17.6428 22.357C17.0177 21.7319 16.6665 20.8841 16.6665 20ZM16.6665 8.33333C16.6665 7.44928 17.0177 6.60143 17.6428 5.97631C18.2679 5.35119 19.1158 5 19.9998 5C20.8839 5 21.7317 5.35119 22.3569 5.97631C22.982 6.60143 23.3332 7.44928 23.3332 8.33333C23.3332 9.21739 22.982 10.0652 22.3569 10.6904C21.7317 11.3155 20.8839 11.6667 19.9998 11.6667C19.1158 11.6667 18.2679 11.3155 17.6428 10.6904C17.0177 10.0652 16.6665 9.21739 16.6665 8.33333Z"
        fill="#5B5B5B" />
</svg>