<svg width="44" height="45" viewBox="0 0 44 45" fill="none" xmlns="http://www.w3.org/2000/svg">
<path d="M22.488 22.046C22.488 24.08 21.048 25.502 19.05 25.502C17.052 25.502 15.612 24.08 15.612 22.046C15.612 20.03 17.052 18.59 19.05 18.59C21.048 18.59 22.488 20.03 22.488 22.046ZM29.706 18.86L19.716 32H17.52L27.51 18.86H29.706ZM20.742 22.046C20.742 21.002 20.058 20.282 19.05 20.282C18.042 20.282 17.376 21.002 17.376 22.046C17.376 23.09 18.06 23.81 19.05 23.81C20.058 23.81 20.742 23.09 20.742 22.046ZM31.632 28.778C31.632 30.794 30.21 32.234 28.212 32.234C26.196 32.234 24.774 30.794 24.774 28.778C24.774 26.762 26.196 25.322 28.212 25.322C30.21 25.322 31.632 26.762 31.632 28.778ZM29.886 28.778C29.886 27.734 29.202 27.014 28.212 27.014C27.204 27.014 26.52 27.734 26.52 28.778C26.52 29.822 27.204 30.542 28.212 30.542C29.202 30.542 29.886 29.822 29.886 28.778Z" fill="black"/>
<mask id="mask0_1575_8583" style="mask-type:alpha" maskUnits="userSpaceOnUse" x="0" y="0" width="49" height="49">
<rect x="0.5" y="0.5" width="47.35" height="47.35" fill="#D9D9D9" stroke="white"/>
</mask>
<g mask="url(#mask0_1575_8583)">
<path d="M13.9277 38.6263L13.8173 38.4404L13.6062 38.3935L6.78462 36.8775L7.44816 29.863L7.46843 29.6487L7.32667 29.4867L2.67903 24.1751L7.32667 18.8635L7.46843 18.7015L7.44816 18.4872L6.78462 11.4726L13.6062 9.95673L13.8173 9.90983L13.9277 9.72391L17.5319 3.6536L23.9789 6.40304L24.1751 6.48669L24.3712 6.40304L30.8182 3.6536L34.4224 9.72391L34.5328 9.90983L34.7439 9.95673L41.5655 11.4726L40.902 18.4872L40.8817 18.7015L41.0235 18.8635L45.6711 24.1751L41.0235 29.4867L40.8817 29.6487L40.902 29.863L41.5655 36.8775L34.7439 38.3935L34.5328 38.4404L34.4224 38.6263L30.8182 44.6966L24.3712 41.9472L24.1751 41.8635L23.9789 41.9472L17.5319 44.6966L13.9277 38.6263ZM18.6099 40.4496L18.8355 40.8229L19.2359 40.6501L24.177 38.5187L29.2182 40.6515L29.6232 40.8229L29.8449 40.443L32.5572 35.7933L37.8885 34.5332L38.31 34.4335L38.2715 34.0021L37.787 28.5751L41.372 24.5056L41.6598 24.179L41.3758 23.849L37.7867 19.6778L38.2715 14.2474L38.3107 13.8084L37.8801 13.7144L32.5501 12.5515L29.7402 7.9006L29.5147 7.5273L29.1142 7.70005L24.1732 9.83149L19.132 7.69868L18.7269 7.5273L18.5053 7.90722L15.7955 12.5525L10.47 13.7144L10.0394 13.8084L10.0786 14.2474L10.5635 19.6778L6.97429 23.849L6.69035 24.179L6.97811 24.5056L10.5635 28.5755L10.0785 34.1036L10.0401 34.542L10.47 34.6358L15.8 35.7987L18.6099 40.4496Z" fill="#1C1B1F" stroke="white"/>
</g>
</svg>
