<svg width="35" height="38" viewBox="0 0 35 38" fill="none" xmlns="http://www.w3.org/2000/svg">
<path d="M4.32021 11.4934V11.7934H4.62021H12.1419H12.4419V11.4934V3.97177V3.67177H12.1419H4.62021H4.32021V3.97177V11.4934ZM23.1244 11.4934V11.7934H23.4244H30.946H31.246V11.4934V3.97177V3.67177H30.946H23.4244H23.1244V3.97177V11.4934ZM23.1244 30.2976V30.5976H23.4244H30.946H31.246V30.2976V22.7759V22.4759H30.946H23.4244H23.1244V22.7759V30.2976ZM4.32021 30.2976V30.5976H4.62021H12.1419H12.4419V30.2976V22.7759V22.4759H12.1419H4.62021H4.32021V22.7759V30.2976ZM1.15938 14.9543V0.510938H15.6027V14.9543H1.15938ZM1.15938 33.7584V19.3151H15.6027V33.7584H1.15938ZM19.9635 14.9543V0.510938H34.4069V14.9543H19.9635ZM19.9635 33.7584V19.3151H34.4069V33.7584H19.9635Z" fill="#1C1B1F" stroke="white" stroke-width="0.6"/>
</svg>
