<svg width="89" height="89" viewBox="0 0 89 89" fill="none" xmlns="http://www.w3.org/2000/svg">
<g clip-path="url(#clip0_1998_3849)">
<path d="M37.4785 66.9786L38.2543 62.051L36.5262 62.0109H28.2744L34.009 25.65C34.0268 25.5402 34.0846 25.4379 34.1692 25.3652C34.2537 25.2925 34.362 25.2524 34.4747 25.2524H48.3884C53.0075 25.2524 56.1952 26.2136 57.8595 28.1108C58.6397 29.0008 59.1366 29.9309 59.3769 30.9544C59.6291 32.0283 59.6336 33.3114 59.3873 34.8763L59.3695 34.9905V35.9933L60.1498 36.4353C60.8069 36.7839 61.329 37.1829 61.7295 37.6398C62.397 38.4007 62.8287 39.3678 63.0111 40.5145C63.1995 41.6937 63.1372 43.0969 62.8287 44.6856C62.4727 46.5131 61.8971 48.1047 61.1199 49.407C60.4049 50.6071 59.4941 51.6024 58.4128 52.3737C57.3804 53.1065 56.1537 53.6627 54.7667 54.0187C53.4228 54.3688 51.8906 54.5453 50.2099 54.5453H49.1271C48.3528 54.5453 47.6008 54.8242 47.0104 55.3241C46.4185 55.8343 46.0269 56.5315 45.9068 57.2939L45.8252 57.7374L44.4546 66.4224L44.3923 66.7413C44.376 66.8421 44.3478 66.8926 44.3063 66.9267C44.2692 66.9578 44.2158 66.9786 44.1639 66.9786H37.4785Z" fill="#253B80"/>
<path d="M60.8874 35.106C60.8459 35.3715 60.7984 35.6429 60.745 35.9218C58.9101 45.3424 52.6327 48.5969 44.6152 48.5969H40.5331C39.5526 48.5969 38.7264 49.3089 38.5736 50.276L36.4836 63.5311L35.8918 67.2884C35.7924 67.9232 36.2819 68.4958 36.9227 68.4958H44.1628C45.0202 68.4958 45.7485 67.8728 45.8835 67.0273L45.9547 66.6594L47.3179 58.0086L47.4054 57.534C47.5389 56.6855 48.2687 56.0625 49.1261 56.0625H50.2089C57.2236 56.0625 62.7149 53.2145 64.3198 44.9731C64.9903 41.5303 64.6432 38.6556 62.8691 36.6338C62.3322 36.0241 61.6662 35.5183 60.8874 35.106Z" fill="#179BD7"/>
<path d="M58.9695 34.3407C58.6892 34.2591 58.3999 34.185 58.1033 34.1182C57.8051 34.053 57.4996 33.9951 57.1851 33.9447C56.0845 33.7667 54.8785 33.6821 53.5865 33.6821H42.6811C42.4126 33.6821 42.1574 33.7429 41.929 33.8527C41.4262 34.0945 41.0524 34.5706 40.9619 35.1536L38.6419 49.8475L38.5752 50.2762C38.728 49.309 39.5542 48.597 40.5347 48.597H44.6168C52.6342 48.597 58.9117 45.3411 60.7466 35.922C60.8015 35.6431 60.8474 35.3716 60.889 35.1061C60.4247 34.8599 59.9218 34.6493 59.3804 34.4698C59.2469 34.4253 59.109 34.3823 58.9695 34.3407Z" fill="#222D65"/>
<path d="M41.9291 33.8542C42.159 33.7444 42.4126 33.6836 42.6811 33.6836H53.5866C54.8786 33.6836 56.0845 33.7681 57.1851 33.9461C57.4996 33.9966 57.8052 34.0544 58.1033 34.1197C58.4 34.1864 58.6892 34.2606 58.9696 34.3422C59.109 34.3837 59.247 34.4268 59.382 34.4698C59.9234 34.6493 60.4262 34.8614 60.8905 35.1061C61.4364 31.6247 60.8861 29.2544 59.0037 27.108C56.9285 24.745 53.1831 23.7334 48.3905 23.7334H34.4768C33.4978 23.7334 32.6627 24.4454 32.5114 25.414L26.716 62.1488C26.6018 62.8756 27.1625 63.5312 27.8952 63.5312H36.4852L38.642 49.8475L40.9619 35.1536C41.0524 34.5706 41.4262 34.0945 41.9291 33.8542Z" fill="#253B80"/>
</g>
<defs>
<clipPath id="clip0_1998_3849">
<rect width="89" height="89" fill="white"/>
</clipPath>
</defs>
</svg>

