<svg width="37" height="37" viewBox="0 0 37 37" fill="none" xmlns="http://www.w3.org/2000/svg">
    <path
        d="M31.3235 0H5.67659C2.55174 0 0 2.55191 0 5.67698V31.323C0 34.4481 2.55174 37 5.67659 37H31.3209C34.4458 37 36.9975 34.4481 36.9975 31.323L37 5.67698C37 2.55191 34.4483 0 31.3235 0ZM29.153 19.9693H19.968V29.22C19.968 30.0499 19.3301 30.6879 18.5003 30.6879C17.6705 30.6879 17.0325 30.0499 17.0325 29.22V19.9693H7.84755C7.01772 19.9693 6.37979 19.3313 6.37979 18.5015C6.37979 17.6716 7.01772 17.0336 7.84755 17.0336H17.0976V7.84801C17.0976 7.01813 17.7355 6.38016 18.5654 6.38016C19.3952 6.38016 20.0331 7.01813 20.0331 7.84801V17.0987H29.2832C30.113 17.0987 30.7509 17.7367 30.7509 18.5665C30.6213 19.3316 29.9828 19.9693 29.153 19.9693Z"
        fill="black" />
</svg>