<svg width="41" height="41" viewBox="0 0 41 41" fill="none" xmlns="http://www.w3.org/2000/svg">
    <path
        d="M8.2 4.44167V34.1667H32.8V4.44167H8.2ZM7.6875 2.5625H33.3125C33.6523 2.5625 33.9782 2.69749 34.2185 2.93777C34.4588 3.17805 34.5938 3.50394 34.5938 3.84375V34.5938C34.5938 34.9336 34.4588 35.2595 34.2185 35.4997C33.9782 35.74 33.6523 35.875 33.3125 35.875H7.6875C7.34769 35.875 7.0218 35.74 6.78152 35.4997C6.54124 35.2595 6.40625 34.9336 6.40625 34.5938V3.84375C6.40625 3.50394 6.54124 3.17805 6.78152 2.93777C7.0218 2.69749 7.34769 2.5625 7.6875 2.5625Z"
        fill="black" />
    <path
        d="M2.5625 34.1667H38.4375V35.875H2.5625V34.1667ZM12.8125 7.6875H17.9375V11.5312H12.8125V7.6875Z"
        fill="black" />
    <path
        d="M15.375 33.3125H25.625V30.75C25.625 29.3908 25.085 28.0872 24.1239 27.1261C23.1628 26.165 21.8592 25.625 20.5 25.625C19.1408 25.625 17.8372 26.165 16.8761 27.1261C15.915 28.0872 15.375 29.3908 15.375 30.75V33.3125ZM20.5 23.0625C22.5389 23.0625 24.4942 23.8724 25.9359 25.3141C27.3776 26.7558 28.1875 28.7111 28.1875 30.75V35.875H12.8125V30.75C12.8125 28.7111 13.6224 26.7558 15.0641 25.3141C16.5058 23.8724 18.4611 23.0625 20.5 23.0625ZM12.8125 15.375H17.9375V19.2188H12.8125V15.375ZM23.0625 7.6875H28.1875V11.5312H23.0625V7.6875ZM23.0625 15.375H28.1875V19.2188H23.0625V15.375Z"
        fill="black" />
</svg>