<svg width="36" height="36" viewBox="0 0 36 36" fill="none" xmlns="http://www.w3.org/2000/svg">
    <path
        d="M1.32608 1.00189C1.13438 1.03828 0.996703 1.20758 1.00006 1.40292V6.21678C1.00006 6.43842 1.17972 6.61808 1.40136 6.61808H3.80862V15.4441H1.40136C1.17972 15.4444 1.00006 15.6235 1.00006 15.8452V20.659C1.00006 20.8807 1.17972 21.0603 1.40136 21.0603H3.80862V29.8864H1.40136C1.17972 29.8867 1.00006 30.0658 1.00006 30.2874V35.1013C1.00006 35.3229 1.17972 35.5026 1.40136 35.5026H6.21551C6.43714 35.5026 6.61681 35.3229 6.61681 35.1013V33.0953H15.4429V35.1013C15.4429 35.3229 15.6225 35.5026 15.8439 35.5026H20.6583C20.8797 35.5026 21.0593 35.3229 21.0593 35.1013V33.0953H29.8854V35.1013C29.8854 35.3229 30.0651 35.5026 30.2867 35.5026H35.1009C35.3225 35.5026 35.5022 35.3229 35.5022 35.1013V30.2874C35.5022 30.0658 35.3225 29.8864 35.1009 29.8861H32.6936V21.06H35.1009C35.3225 21.06 35.5022 20.8807 35.5022 20.659V15.8452C35.5022 15.6235 35.3225 15.4441 35.1009 15.4439H32.6936V6.61779H35.1009C35.3225 6.61779 35.5022 6.43842 35.5022 6.21678V1.40292C35.5055 1.20758 35.3678 1.03828 35.1761 1.00189C35.1512 0.999377 35.126 0.999377 35.1009 1.00189H30.2867C30.0651 1.00189 29.8854 1.18127 29.8854 1.40292V3.40884H21.0594V1.40292C21.0594 1.18127 20.8797 1.00189 20.6583 1.00189H15.8439C15.819 0.999377 15.7938 0.999377 15.7689 1.00189C15.5769 1.03828 15.4395 1.20758 15.4429 1.40292V3.40884H12.2333C12.2084 3.40632 12.1832 3.40632 12.158 3.40884C12.0514 3.41835 11.9532 3.47013 11.8846 3.5524C11.8163 3.63495 11.7833 3.74101 11.7934 3.84763C11.8035 3.95426 11.8555 4.05248 11.9381 4.12076C12.0204 4.18877 12.1267 4.22122 12.2333 4.21115H15.4429V6.21707C15.4429 6.43872 15.6225 6.6181 15.8439 6.6181H20.6583C20.8797 6.6181 21.0593 6.43843 21.0593 6.21679V4.21087H29.8854V6.21679C29.8854 6.43843 30.0651 6.6181 30.2867 6.6181H31.8913V15.4442H30.2867C30.0651 15.4444 29.8854 15.6235 29.8854 15.8452V20.659C29.8857 20.8807 30.0651 21.0603 30.2867 21.0603H31.8913V29.8864H30.2867C30.0651 29.8867 29.8857 30.0658 29.8854 30.2874V32.2934H21.0593V30.2874C21.0593 30.0658 20.8797 29.8864 20.6583 29.8861H15.8439C15.6225 29.8864 15.4429 30.0658 15.4429 30.2874V32.2934H6.61681V30.2874C6.61652 30.0658 6.43715 29.8864 6.21551 29.8861H4.61092V21.0601H6.21551C6.43715 21.0601 6.61653 20.8807 6.61681 20.659V15.8452C6.61681 15.6235 6.43715 15.4442 6.21551 15.4439H4.61092V6.61782H6.21551C6.43715 6.61782 6.61681 6.43843 6.61681 6.2168V4.21087H9.82635C9.93381 4.21227 10.0371 4.17113 10.1138 4.09557C10.1901 4.0203 10.2333 3.91731 10.2333 3.80985C10.2333 3.70239 10.1901 3.59969 10.1138 3.52413C10.0371 3.44885 9.93353 3.40715 9.82607 3.40883H6.61652V1.40291C6.61652 1.18127 6.43715 1.00189 6.21551 1.00189H1.40136C1.37617 0.99937 1.35099 0.999373 1.32608 1.00189ZM1.80237 1.80419H5.81422V5.81575H1.80237V1.80419ZM16.245 1.80419H20.2569V5.81575H16.245V1.80419ZM30.6877 1.80419H34.6995V5.81575H30.6877V1.80419ZM1.80237 16.2461H5.81422V20.2577H1.80237V16.2461ZM30.6877 16.2461H34.6995V20.2577H30.6877V16.2461ZM1.80237 30.6881H5.81422V34.6996H1.80237V30.6881ZM16.245 30.6881H20.2569V34.6996H16.245V30.6881ZM30.6877 30.6881H34.6995V34.6996H30.6877V30.6881Z"
        fill="black" stroke="black" />
</svg>