<svg width="31" height="30" viewBox="0 0 31 30" fill="none" xmlns="http://www.w3.org/2000/svg">
    <path fill-rule="evenodd" clip-rule="evenodd"
        d="M1.51441 7.22356C1.12441 7.07939 0.719131 6.96597 0.301473 6.88617C0.270809 6.88033 0.240078 6.87466 0.209278 6.86915C-0.0697594 6.81936 -0.0697594 6.41911 0.209278 6.36933C0.240078 6.36382 0.270809 6.35815 0.301473 6.35231C0.719131 6.27251 1.12441 6.15909 1.51441 6.01491C1.74781 5.92862 1.97574 5.83136 2.19757 5.72365C3.73381 4.97794 4.97794 3.73381 5.72368 2.19757C5.83135 1.97574 5.92866 1.74781 6.01491 1.51441C6.15909 1.12441 6.27251 0.719131 6.3523 0.301473C6.35814 0.270808 6.36382 0.240078 6.36932 0.209278C6.41911 -0.0697594 6.81936 -0.0697594 6.86915 0.209278C6.87466 0.240078 6.88033 0.270808 6.88617 0.301473C6.96596 0.719131 7.07938 1.12441 7.22356 1.51441C7.30985 1.74781 7.40712 1.97574 7.51483 2.19757C8.26053 3.73381 9.50466 4.97794 11.0409 5.72365C11.2627 5.83136 11.4907 5.92862 11.7241 6.01491C12.1141 6.15909 12.5193 6.27251 12.937 6.35231C12.9677 6.35815 12.9984 6.36382 13.0292 6.36933C13.3082 6.41911 13.3082 6.81936 13.0292 6.86915C12.9984 6.87466 12.9677 6.88033 12.937 6.88617C12.5193 6.96597 12.1141 7.07939 11.7241 7.22356C11.4907 7.30985 11.2627 7.40712 11.0409 7.51483C9.50466 8.26053 8.26053 9.50466 7.51483 11.0409C7.40712 11.2628 7.30985 11.4907 7.22356 11.7241C7.07938 12.1141 6.96596 12.5193 6.88617 12.937C6.88033 12.9676 6.87466 12.9984 6.86915 13.0292C6.81936 13.3082 6.41911 13.3082 6.36932 13.0292C6.36382 12.9984 6.35814 12.9676 6.3523 12.937C6.27251 12.5193 6.15909 12.1141 6.01491 11.7241C5.92866 11.4907 5.83135 11.2628 5.72368 11.0409C4.97794 9.50466 3.73381 8.26053 2.19757 7.51483C1.97574 7.40712 1.74781 7.30985 1.51441 7.22356ZM10.8385 17.139C10.5658 17.0655 10.2892 17.001 10.0092 16.9458C9.96538 16.9372 9.92156 16.9288 9.87766 16.9206L9.86434 16.9182L9.84633 16.9149C9.81862 16.9098 9.7882 16.9044 9.72735 16.8935L9.7061 16.8897C9.25985 16.8053 9.25985 16.1663 9.7061 16.0818L9.72735 16.078C9.7882 16.0671 9.81862 16.0617 9.84633 16.0567L9.86434 16.0534L9.87766 16.0509C9.92156 16.0427 9.96538 16.0343 10.0091 16.0257C10.2892 15.9706 10.5658 15.9061 10.8385 15.8326C11.0715 15.7698 11.3017 15.7004 11.529 15.6247C15.2057 14.399 18.099 11.5058 19.3246 7.82904C19.4003 7.60178 19.4697 7.37156 19.5325 7.13855C19.606 6.86582 19.6705 6.58923 19.7257 6.30918C19.7343 6.26544 19.7427 6.22162 19.7508 6.17771L19.7533 6.16439L19.7566 6.14639C19.7616 6.11901 19.767 6.08895 19.7776 6.02947L19.778 6.02741L19.7818 6.00616C19.8662 5.5599 20.5052 5.5599 20.5897 6.00616L20.5935 6.02741C20.6043 6.08826 20.6098 6.11868 20.6148 6.14639L20.6181 6.16439L20.6206 6.17771C20.6288 6.22162 20.6371 6.26544 20.6457 6.30918C20.7009 6.58927 20.7654 6.86582 20.8389 7.13855C20.9017 7.37156 20.9711 7.60178 21.0468 7.82904C22.2724 11.5058 25.1657 14.399 28.8424 15.6247C29.0697 15.7004 29.2999 15.7698 29.5329 15.8326C29.8056 15.9061 30.0822 15.9706 30.3623 16.0257C30.406 16.0343 30.4499 16.0427 30.4938 16.0509L30.5071 16.0534L30.5251 16.0567C30.5528 16.0617 30.5832 16.0671 30.6441 16.078L30.6653 16.0818C31.1116 16.1663 31.1116 16.8053 30.6653 16.8897L30.6441 16.8935L30.5797 16.905L30.5251 16.9149L30.5071 16.9182L30.4938 16.9206C30.4499 16.9288 30.406 16.9372 30.3623 16.9458C30.0822 17.001 29.8056 17.0655 29.5329 17.139C29.2999 17.2017 29.0697 17.2711 28.8424 17.3469C25.1657 18.5725 22.2724 21.4657 21.0468 25.1425C20.9711 25.3697 20.9017 25.6 20.8389 25.833C20.7654 26.1057 20.7009 26.3823 20.6457 26.6623C20.6371 26.7061 20.6288 26.7499 20.6206 26.7938L20.6181 26.8071L20.6148 26.8251L20.6075 26.8657L20.5939 26.9418L20.5897 26.9654C20.5052 27.4116 19.8662 27.4116 19.7818 26.9654L19.778 26.9441C19.7671 26.8834 19.7616 26.8528 19.7566 26.8251L19.7533 26.8071L19.7508 26.7938C19.7427 26.7499 19.7343 26.7061 19.7257 26.6623C19.6705 26.3823 19.606 26.1057 19.5325 25.833C19.4697 25.6 19.4003 25.3697 19.3246 25.1425C18.099 21.4657 15.2057 18.5725 11.529 17.3469C11.3017 17.2711 11.0715 17.2017 10.8385 17.139ZM4.68461 25.6987C5.15365 25.7882 5.59793 25.945 6.00722 26.1587C6.1893 26.2537 6.36443 26.36 6.53171 26.4767C6.99786 26.8017 7.40317 27.207 7.72819 27.6731C7.84482 27.8404 7.95113 28.0156 8.04614 28.1976C8.25983 28.6069 8.41659 29.0512 8.50617 29.5203C8.50987 29.5396 8.51348 29.559 8.51694 29.5785C8.54839 29.7547 8.80118 29.7547 8.83263 29.5785C8.83608 29.559 8.83965 29.5396 8.84336 29.5203C8.93298 29.0512 9.08973 28.6069 9.30338 28.1976C9.39843 28.0156 9.50474 27.8404 9.62137 27.6731C9.94635 27.207 10.3517 26.8017 10.8179 26.4767C10.9851 26.36 11.1603 26.2537 11.3423 26.1587C11.7516 25.945 12.1959 25.7882 12.6649 25.6987C12.6843 25.695 12.7037 25.6914 12.7232 25.6879C12.8994 25.6565 12.8994 25.4037 12.7232 25.3723C12.7037 25.3688 12.6843 25.3652 12.6649 25.3615C12.1959 25.2719 11.7516 25.1151 11.3423 24.9015C11.1603 24.8064 10.9851 24.7001 10.8179 24.5835C10.3517 24.2585 9.94635 23.8531 9.62137 23.387C9.50474 23.2197 9.39843 23.0446 9.30338 22.8625C9.08973 22.4532 8.93298 22.0089 8.84336 21.5399C8.83965 21.5205 8.83608 21.5011 8.83263 21.4817C8.80118 21.3054 8.54839 21.3054 8.51694 21.4817C8.51348 21.5011 8.50987 21.5205 8.50617 21.5399C8.41659 22.0089 8.25983 22.4532 8.04614 22.8625C7.95113 23.0446 7.84482 23.2197 7.72819 23.387C7.40317 23.8531 6.99786 24.2585 6.53171 24.5835C6.36443 24.7001 6.1893 24.8064 6.00722 24.9015C5.59793 25.1151 5.15365 25.2719 4.68461 25.3615C4.66525 25.3652 4.64585 25.3688 4.62636 25.3723C4.45016 25.4037 4.45016 25.6565 4.62636 25.6879C4.64585 25.6914 4.66525 25.695 4.68461 25.6987Z"
        fill="#E8804C" />
</svg>