<svg width="25" height="25" viewBox="0 0 25 25" fill="none" xmlns="http://www.w3.org/2000/svg">
<path d="M24.8598 12.4299C24.8598 19.2841 19.2841 24.8598 12.4299 24.8598C5.57569 24.8598 0 19.2841 0 12.4299C0 5.57569 5.57569 0 12.4299 0C19.2841 0 24.8598 5.57569 24.8598 12.4299ZM22.7289 12.4299C22.7289 6.74765 18.1121 2.13084 12.4299 2.13084C6.74765 2.13084 2.13084 6.74765 2.13084 12.4299C2.13084 18.1121 6.74765 22.7289 12.4299 22.7289C18.1121 22.7644 22.7289 18.1121 22.7289 12.4299Z" fill="#E8804C"/>
<path d="M12.4297 10.6187C11.8259 10.6187 11.3643 11.0803 11.3643 11.6841V17.1177C11.3643 17.7214 11.8259 18.1831 12.4297 18.1831C13.0334 18.1831 13.4951 17.7214 13.4951 17.1177V11.6841C13.4951 11.0803 13.0334 10.6187 12.4297 10.6187Z" fill="#E8804C"/>
<path d="M12.4297 6.71191C12.1456 6.71191 11.8615 6.81845 11.6839 7.03154C11.4708 7.20911 11.3643 7.49322 11.3643 7.77733C11.3643 7.84836 11.3643 7.91939 11.3998 7.99042C11.3998 8.06144 11.4353 8.13247 11.4708 8.2035C11.5063 8.27453 11.5418 8.31004 11.5773 8.38107C11.6129 8.4521 11.6484 8.48761 11.7194 8.55864C12.11 8.94929 12.8203 8.94929 13.211 8.55864C13.2465 8.52312 13.3175 8.4521 13.353 8.38107C13.3885 8.31004 13.4241 8.27453 13.4596 8.2035C13.4951 8.13247 13.4951 8.06144 13.5306 7.99042C13.5306 7.91938 13.5661 7.84836 13.5661 7.77733C13.5661 7.49322 13.4596 7.20911 13.2465 7.03154C12.9979 6.81845 12.7138 6.71191 12.4297 6.71191Z" fill="#E8804C"/>
</svg>
