<svg width="80" height="80" viewBox="0 0 80 80" fill="none" xmlns="http://www.w3.org/2000/svg">
<path d="M74.937 6.721H16.232V1C16.232 0.447 15.784 0 15.232 0H6.979C6.427 0 5.979 0.447 5.979 1V6.721H1C0.448 6.721 0 7.168 0 7.721V15.847C0 16.4 0.448 16.847 1 16.847H5.979V79C5.979 79.553 6.427 80 6.979 80H15.232C15.784 80 16.232 79.553 16.232 79V16.847H24.745V21H21.589C21.037 21 20.589 21.447 20.589 22V70.169C20.589 70.722 21.037 71.169 21.589 71.169H74.283C74.835 71.169 75.283 70.722 75.283 70.169V22C75.283 21.447 74.835 21 74.283 21H70.174V16.847H74.937C77.729 16.847 80 14.576 80 11.784C80 8.993 77.728 6.721 74.937 6.721ZM7.979 2H14.232V6.721H7.979V2ZM14.232 78H7.979V16.847H14.232V78ZM54.293 23L22.589 54.705V23H54.293ZM38.038 69.169L73.283 33.924V69.169H38.038ZM73.283 31.097L35.21 69.169H22.589V57.508C22.613 57.488 22.643 57.48 22.665 57.457L57.121 23H73.283V31.097ZM68.174 21H26.745V16.847H68.174V21ZM74.937 14.847H2V8.721H74.937C76.626 8.721 78 10.095 78 11.783C78 13.473 76.626 14.847 74.937 14.847Z" fill="black"/>
</svg>
