<svg width="75" height="94" viewBox="0 0 75 94" fill="none" xmlns="http://www.w3.org/2000/svg">
<path d="M69.9071 11.6574C69.7384 11.7478 69.5413 11.7693 69.3571 11.7174C69.1758 11.6599 69.0245 11.533 68.9365 11.3643C68.8484 11.1957 68.8307 10.9991 68.8871 10.8174L70.2971 6.18739C70.5685 5.29151 70.475 4.32471 70.0371 3.49739C69.7079 2.88735 69.2059 2.3881 68.594 2.06225C67.9821 1.73641 67.2877 1.59848 66.5978 1.66576C65.9078 1.73305 65.2531 2.00255 64.7157 2.44047C64.1784 2.87839 63.7823 3.46523 63.5771 4.12739L62.1671 8.76739C62.1114 8.95039 61.9853 9.10377 61.8165 9.19379C61.6477 9.2838 61.4501 9.30309 61.2671 9.24739C61.0841 9.1917 60.9307 9.06559 60.8407 8.8968C60.7507 8.72802 60.7314 8.53039 60.7871 8.34739L62.2071 3.65739C62.3805 3.01653 62.681 2.41709 63.0908 1.89474C63.5005 1.37239 64.0112 0.93781 64.5924 0.61686C65.1735 0.295909 65.8133 0.0951464 66.4737 0.0265182C67.134 -0.0421099 67.8014 0.0227989 68.4362 0.217382C69.0709 0.411966 69.66 0.732247 70.1684 1.15917C70.6769 1.58609 71.0942 2.11092 71.3957 2.70244C71.6971 3.29396 71.8765 3.94007 71.9231 4.60233C71.9698 5.2646 71.8827 5.92947 71.6671 6.55739L70.2571 11.1874C70.2362 11.2864 70.1941 11.3796 70.1337 11.4608C70.0732 11.5419 69.9959 11.609 69.9071 11.6574Z" fill="black"/>
<path d="M40.8477 92.2374C40.671 92.3071 40.4744 92.3071 40.2977 92.2374C40.1604 92.1953 40.0391 92.1125 39.9499 92.0001C39.8606 91.8876 39.8075 91.7507 39.7977 91.6074L37.8877 68.9574C37.8682 68.8685 37.8682 68.7764 37.8877 68.6874L54.6077 14.0574C55.3198 11.7288 56.9278 9.77848 59.0779 8.63544C61.228 7.49241 63.7441 7.25032 66.0727 7.96242C68.4013 8.67453 70.3516 10.2825 71.4947 12.4326C72.6377 14.5827 72.8798 17.0988 72.1677 19.4274L55.4677 74.0474C55.444 74.1346 55.4032 74.2162 55.3477 74.2874L41.0677 92.0474C41.0067 92.1238 40.9321 92.1882 40.8477 92.2374ZM39.3277 68.9774L41.0777 89.7574L54.1377 73.4974L70.7877 19.0074C71.3884 17.0435 71.1843 14.9214 70.2204 13.1079C69.2565 11.2944 67.6116 9.93814 65.6477 9.33742C63.6838 8.73671 61.5616 8.94076 59.7482 9.9047C57.9347 10.8686 56.5784 12.5135 55.9777 14.4774L39.3277 68.9774Z" fill="black"/>
<path d="M55.5274 73.2071C55.3587 73.2974 55.1615 73.3189 54.9773 73.2671L38.7974 68.2671C38.7059 68.2408 38.6206 68.1964 38.5467 68.1366C38.4727 68.0768 38.4115 68.0027 38.3667 67.9187C38.322 67.8348 38.2945 67.7427 38.286 67.6479C38.2775 67.5531 38.2882 67.4576 38.3174 67.3671L39.2474 64.3671C39.305 64.1854 39.4314 64.0335 39.5996 63.9438C39.7678 63.8541 39.9644 63.8337 40.1474 63.8871L56.3274 68.8871C56.4188 68.9136 56.5041 68.9582 56.5779 69.0183C56.6518 69.0785 56.7128 69.1529 56.7574 69.2371C56.8381 69.4053 56.8558 69.5969 56.8074 69.7771L55.8773 72.7771C55.8514 72.8688 55.8069 72.9542 55.7467 73.0282C55.6866 73.1021 55.6119 73.163 55.5274 73.2071ZM39.8974 67.2071L54.6973 71.6571L55.2074 69.9971L40.3874 65.4871L39.8974 67.2071Z" fill="black"/>
<path d="M65.8083 50.3672C65.6318 50.4379 65.4348 50.4379 65.2583 50.3672C65.0769 50.3097 64.9257 50.1828 64.8376 50.0142C64.7496 49.8455 64.7318 49.6489 64.7883 49.4672L73.4483 21.1172C73.6578 20.421 73.5842 19.6703 73.2435 19.028C72.9027 18.3858 72.3223 17.904 71.6283 17.6872C71.538 17.6609 71.4538 17.6168 71.3806 17.5577C71.3075 17.4985 71.2468 17.4254 71.2021 17.3426C71.1574 17.2598 71.1297 17.1689 71.1205 17.0753C71.1112 16.9817 71.1207 16.8871 71.1483 16.7972C71.1757 16.7065 71.2208 16.6221 71.2809 16.5489C71.341 16.4756 71.415 16.4149 71.4986 16.3704C71.5822 16.3258 71.6738 16.2981 71.7682 16.289C71.8625 16.2799 71.9577 16.2895 72.0483 16.3172C73.1076 16.6424 73.9944 17.375 74.5139 18.3538C75.0333 19.3326 75.1428 20.4777 74.8183 21.5372L66.1583 49.9372C66.1008 50.12 65.9756 50.2738 65.8083 50.3672Z" fill="black"/>
<path d="M34.6066 93.157C32.3705 93.2334 30.1916 92.4414 28.5266 90.947L28.2565 90.727C27.5366 91.227 26.7566 90.967 25.7266 90.617C25.1666 90.437 24.4766 90.197 23.5466 89.967C22.9597 89.8626 22.4316 89.5462 22.0629 89.0778C21.6941 88.6095 21.5104 88.022 21.5466 87.427C21.2601 88.1854 20.724 88.8237 20.0266 89.237C19.8818 89.3015 19.7251 89.3348 19.5666 89.3348C19.4081 89.3348 19.2513 89.3015 19.1066 89.237C18.6222 89.0054 18.1822 88.6906 17.8066 88.307C17.0871 88.9473 16.295 89.5011 15.4465 89.957C14.8665 90.247 14.3865 90.447 13.9465 90.247C13.7991 90.1771 13.671 90.0723 13.5734 89.9415C13.4758 89.8108 13.4116 89.6582 13.3865 89.497C13.3574 89.3488 13.2842 89.2129 13.1765 89.107C12.7865 88.717 12.6165 88.537 12.6165 88.107C12.6238 88.0305 12.6238 87.9535 12.6165 87.877L9.90655 90.587C9.77617 90.7043 9.60697 90.7693 9.43155 90.7693C9.25613 90.7693 9.08693 90.7043 8.95655 90.587C8.09629 89.8818 7.42883 88.9701 7.01655 87.937C5.22707 89.7341 3.2717 91.358 1.17655 92.787C1.09826 92.8512 1.00731 92.8981 0.909634 92.9248C0.81196 92.9515 0.70976 92.9572 0.609707 92.9417C0.509653 92.9262 0.413996 92.8898 0.32898 92.8348C0.243963 92.7798 0.1715 92.7075 0.116321 92.6226C0.0611414 92.5377 0.0244868 92.4422 0.00875002 92.3421C-0.00698678 92.2421 -0.00145213 92.1399 0.024993 92.0422C0.0514381 91.9444 0.0981994 91.8534 0.162223 91.775C0.226246 91.6965 0.306093 91.6325 0.396549 91.587C2.61087 90.0471 4.66455 88.2882 6.52655 86.337C5.47655 81.947 6.71655 75.917 8.45655 71.877C9.36655 69.797 10.7865 67.377 12.4065 67.597C14.0265 67.817 14.3365 70.397 14.4065 71.237C15.0265 76.147 12.9165 81.437 8.30655 86.527L8.11655 86.737C8.36718 87.573 8.79718 88.3442 9.37655 88.997L12.4766 85.897C12.5613 85.8087 12.6681 85.7446 12.7858 85.7112C12.9036 85.6779 13.0281 85.6764 13.1466 85.707C13.2659 85.7324 13.3762 85.7894 13.466 85.8721C13.5557 85.9548 13.6215 86.0601 13.6565 86.177C13.8718 86.7281 14.0065 87.3074 14.0566 87.897L14.2065 88.047C14.3965 88.2369 14.5491 88.4608 14.6565 88.707L14.8166 88.627C15.8035 88.0939 16.7149 87.4314 17.5266 86.657C17.6257 86.5554 17.753 86.4859 17.892 86.4573C18.031 86.4288 18.1754 86.4426 18.3066 86.497C18.4274 86.5448 18.5326 86.6253 18.6104 86.7295C18.6881 86.8337 18.7352 86.9575 18.7465 87.087C18.7465 87.147 18.9066 87.477 19.6366 87.877C20.4192 86.6717 21.0443 85.3711 21.4966 84.007C22.2166 82.167 22.4066 81.677 23.1166 81.807C23.5566 81.887 23.7766 82.2203 23.7766 82.807C23.7351 83.5966 23.6008 84.3787 23.3765 85.137C22.8065 87.457 22.8065 88.277 23.9465 88.567C24.9465 88.817 25.6866 89.067 26.2365 89.247C27.3665 89.627 27.4466 89.607 27.5765 89.477C28.2565 88.797 29.0066 89.417 29.4966 89.837C30.5666 90.717 32.5565 92.377 37.2766 91.427C37.4649 91.3938 37.6586 91.4368 37.8152 91.5465C37.9718 91.6563 38.0784 91.8237 38.1115 92.012C38.1447 92.2003 38.1017 92.394 37.992 92.5506C37.8823 92.7072 37.7149 92.8138 37.5266 92.847C36.566 93.0478 35.5878 93.1516 34.6066 93.157ZM12.1565 69.087C11.8565 69.087 10.8765 69.917 9.74655 72.517C8.21655 76.057 7.15655 81.197 7.74655 85.077C10.8665 81.467 13.6665 76.677 13.0165 71.487C12.7765 69.557 12.3165 69.097 12.2065 69.087H12.1565Z" fill="black"/>
</svg>
