<svg width="483" height="187" viewBox="0 0 483 187" fill="none" xmlns="http://www.w3.org/2000/svg">
<rect x="0.5" y="0.5" width="220" height="186" rx="9.5" fill="#F5F6F9" stroke="black"/>
<rect x="262" width="221" height="187" rx="10" fill="#F5F6F9"/>
<path d="M41.816 153H40.088V135.816H41.84L51.296 150.12V135.816H53V153H51.296L41.816 138.696V153ZM61.7094 153.288C58.3014 153.288 56.0214 150.84 56.0214 147.192C56.0214 143.568 58.2774 141.072 61.5894 141.072C64.7334 141.072 66.8694 143.304 66.8694 146.592V147.408H57.6294C57.7494 150.24 59.2374 151.872 61.7334 151.872C63.6294 151.872 64.8534 151.056 65.2854 149.52H66.8694C66.2454 151.968 64.4454 153.288 61.7094 153.288ZM61.5894 142.488C59.4054 142.488 57.9654 143.928 57.6774 146.208H65.2134C65.2134 143.976 63.7734 142.488 61.5894 142.488ZM71.6604 153L67.8204 141.384H69.5244L71.8044 148.392C72.0684 149.16 72.2844 149.952 72.5244 150.888C72.7164 149.952 73.1004 148.776 73.2204 148.392L75.5244 141.384H77.2284L79.5084 148.392C79.7244 149.016 80.0124 150.024 80.2284 150.888C80.4684 149.928 80.5164 149.64 80.9244 148.392L83.2284 141.384H84.9564L81.0204 153H79.4124L77.0124 145.704C76.7244 144.84 76.5324 144.12 76.3884 143.424C76.2204 144.048 76.0284 144.744 75.7164 145.704L73.3164 153H71.6604ZM100.593 146.688H95.7691V153H94.0411V135.816H100.593C103.905 135.816 105.993 137.976 105.993 141.216C105.993 144.336 103.881 146.688 100.593 146.688ZM100.353 137.376H95.7691V145.128H100.257C102.753 145.128 104.193 143.544 104.193 141.192C104.193 138.816 102.729 137.376 100.353 137.376ZM116.583 141.384H118.239V153H116.799L116.583 151.032C115.935 152.376 114.327 153.288 112.503 153.288C109.767 153.288 108.279 151.416 108.279 148.584V141.36H109.959V148.056C109.959 150.816 111.183 151.8 113.031 151.8C115.263 151.8 116.583 150.312 116.583 147.552V141.384ZM127.761 141.24V142.728H126.849C124.713 142.728 123.345 144.168 123.345 146.376V153H121.689V141.384H123.249L123.369 143.184C123.825 141.936 125.049 141.12 126.681 141.12C127.041 141.12 127.353 141.144 127.761 141.24ZM128.701 147.216C128.701 143.568 130.933 141.072 134.317 141.072C137.005 141.072 138.973 142.632 139.429 145.032H137.773C137.341 143.424 135.949 142.536 134.341 142.536C131.989 142.536 130.333 144.336 130.333 147.192C130.333 149.952 131.869 151.8 134.221 151.8C135.949 151.8 137.341 150.84 137.797 149.352H139.477C138.925 151.728 136.861 153.288 134.221 153.288C130.933 153.288 128.701 150.864 128.701 147.216ZM143.642 152.976H141.986V135.504H143.642V143.4C144.386 142.008 145.802 141.072 147.746 141.072C150.794 141.072 152.162 142.968 152.162 145.896V153H150.506V146.256C150.506 143.544 149.234 142.584 147.434 142.584C144.938 142.584 143.642 144.432 143.642 146.664V152.976ZM158.798 153.288C156.326 153.288 154.862 151.896 154.862 149.856C154.862 147.72 156.494 146.376 159.206 146.16L163.046 145.848V145.464C163.046 143.184 161.678 142.464 159.974 142.464C157.958 142.464 156.758 143.376 156.758 144.936H155.246C155.246 142.584 157.166 141.072 160.022 141.072C162.71 141.072 164.678 142.416 164.678 145.488V153H163.286L163.07 150.96C162.35 152.424 160.766 153.288 158.798 153.288ZM159.182 151.944C161.63 151.944 163.046 150.24 163.046 147.72V147.096L159.614 147.36C157.43 147.552 156.542 148.512 156.542 149.808C156.542 151.224 157.598 151.944 159.182 151.944ZM167.017 149.736H168.601C168.601 151.08 169.609 151.92 171.241 151.92C173.041 151.92 174.097 151.152 174.097 149.904C174.097 148.944 173.617 148.392 172.249 148.056L170.257 147.552C168.241 147.048 167.257 145.992 167.257 144.408C167.257 142.368 168.961 141.072 171.457 141.072C173.905 141.072 175.489 142.416 175.561 144.576H173.953C173.905 143.232 172.969 142.44 171.409 142.44C169.777 142.44 168.865 143.136 168.865 144.384C168.865 145.272 169.489 145.896 170.761 146.208L172.753 146.712C174.769 147.216 175.681 148.152 175.681 149.832C175.681 151.92 173.905 153.288 171.265 153.288C168.649 153.288 167.017 151.896 167.017 149.736ZM183.28 153.288C179.872 153.288 177.592 150.84 177.592 147.192C177.592 143.568 179.848 141.072 183.16 141.072C186.304 141.072 188.44 143.304 188.44 146.592V147.408H179.2C179.32 150.24 180.808 151.872 183.304 151.872C185.2 151.872 186.424 151.056 186.856 149.52H188.44C187.816 151.968 186.016 153.288 183.28 153.288ZM183.16 142.488C180.976 142.488 179.536 143.928 179.248 146.208H186.784C186.784 143.976 185.344 142.488 183.16 142.488Z" fill="#121212"/>
<path d="M324.648 153.984L322.824 151.92C321.528 152.808 319.968 153.288 318.216 153.288C313.392 153.288 310.032 149.616 310.032 144.408C310.032 139.2 313.416 135.504 318.216 135.504C323.04 135.504 326.4 139.176 326.4 144.408C326.4 147.072 325.512 149.328 324.024 150.888L325.824 152.904L324.648 153.984ZM324.624 144.408C324.624 140.112 322.008 137.184 318.216 137.184C314.424 137.184 311.832 140.112 311.832 144.408C311.832 148.704 314.424 151.632 318.216 151.632C319.536 151.632 320.712 151.272 321.672 150.648L319.44 148.128L320.592 147.048L322.872 149.592C323.976 148.32 324.624 146.52 324.624 144.408ZM337.333 141.384H338.989V153H337.549L337.333 151.032C336.685 152.376 335.077 153.288 333.253 153.288C330.517 153.288 329.029 151.416 329.029 148.584V141.36H330.709V148.056C330.709 150.816 331.933 151.8 333.781 151.8C336.013 151.8 337.333 150.312 337.333 147.552V141.384ZM343.255 138.192C342.583 138.192 342.031 137.64 342.031 136.968C342.031 136.296 342.583 135.72 343.255 135.72C343.927 135.72 344.503 136.296 344.503 136.968C344.503 137.64 343.927 138.192 343.255 138.192ZM342.439 153V141.384H344.095V153H342.439ZM346.732 147.216C346.732 143.568 348.964 141.072 352.348 141.072C355.036 141.072 357.004 142.632 357.46 145.032H355.804C355.372 143.424 353.98 142.536 352.372 142.536C350.02 142.536 348.364 144.336 348.364 147.192C348.364 149.952 349.9 151.8 352.252 151.8C353.98 151.8 355.372 150.84 355.828 149.352H357.508C356.956 151.728 354.892 153.288 352.252 153.288C348.964 153.288 346.732 150.864 346.732 147.216ZM361.745 153H360.089V135.504H361.745V147.384L367.505 141.384H369.593L365.129 146.016L369.617 153H367.697L364.001 147.192L361.745 149.52V153ZM383.123 153.288C379.715 153.288 377.435 150.84 377.435 147.192C377.435 143.568 379.691 141.072 383.003 141.072C386.147 141.072 388.283 143.304 388.283 146.592V147.408H379.043C379.163 150.24 380.651 151.872 383.147 151.872C385.043 151.872 386.267 151.056 386.699 149.52H388.283C387.659 151.968 385.859 153.288 383.123 153.288ZM383.003 142.488C380.819 142.488 379.379 143.928 379.091 146.208H386.627C386.627 143.976 385.187 142.488 383.003 142.488ZM390.259 140.28C390.259 137.4 392.563 135.504 396.019 135.504C399.115 135.504 401.155 137.232 401.419 140.112H399.667C399.475 138.168 398.155 137.064 395.995 137.064C393.571 137.064 391.987 138.312 391.987 140.256C391.987 141.768 392.875 142.728 394.675 143.184L397.627 143.904C400.315 144.552 401.707 146.088 401.707 148.416C401.707 151.392 399.403 153.288 395.851 153.288C392.515 153.288 390.259 151.536 390.043 148.728H391.819C391.915 150.528 393.499 151.704 395.851 151.704C398.371 151.704 399.979 150.48 399.979 148.512C399.979 146.976 399.115 145.968 397.267 145.536L394.363 144.816C391.675 144.168 390.259 142.632 390.259 140.28ZM405.271 138.192C404.599 138.192 404.047 137.64 404.047 136.968C404.047 136.296 404.599 135.72 405.271 135.72C405.943 135.72 406.519 136.296 406.519 136.968C406.519 137.64 405.943 138.192 405.271 138.192ZM404.455 153V141.384H406.111V153H404.455ZM408.772 146.856C408.772 143.688 410.812 141.072 414.22 141.072C416.236 141.072 417.772 142.008 418.516 143.712L418.684 141.384H420.124V152.64C420.124 156.096 417.916 158.352 414.508 158.352C411.532 158.352 409.444 156.672 408.988 153.864H410.644C411.004 155.736 412.444 156.84 414.532 156.84C416.908 156.84 418.492 155.232 418.492 152.808V150.048C417.7 151.68 416.092 152.64 414.1 152.64C410.788 152.64 408.772 150.024 408.772 146.856ZM410.428 146.832C410.428 149.208 411.892 151.152 414.34 151.152C416.86 151.152 418.348 149.328 418.348 146.832C418.348 144.36 416.908 142.536 414.364 142.536C411.868 142.536 410.428 144.48 410.428 146.832ZM425.236 153H423.58V141.384H425.02L425.26 143.4C426.028 141.912 427.564 141.072 429.244 141.072C432.436 141.072 433.756 142.968 433.756 145.896V153H432.1V146.256C432.1 143.544 430.876 142.584 428.956 142.584C426.58 142.584 425.236 144.312 425.236 146.928V153Z" fill="#121212"/>
</svg>
