<svg width="35" height="38" viewBox="0 0 35 38" fill="none" xmlns="http://www.w3.org/2000/svg">
<path d="M6.80062 26.5588V0.457715H34.4069V32.2161C34.4069 33.7092 33.8892 34.9685 32.8491 36.0116C31.809 37.0546 30.5537 37.5735 29.0656 37.5735H6.50062C5.01254 37.5735 3.75725 37.0546 2.71717 36.0116C1.67707 34.9685 1.15938 33.7092 1.15938 32.2161V26.8588H6.50062H6.80062V26.5588ZM31.246 3.92929V3.62929H30.946H10.2615H9.96145V3.92929V26.5588V26.8588H10.2615H26.8852V32.2161C26.8852 32.8257 27.094 33.351 27.5134 33.7716C27.9328 34.1922 28.457 34.4019 29.0656 34.4019C29.6742 34.4019 30.1985 34.1922 30.6178 33.7716C31.0372 33.351 31.246 32.8257 31.246 32.2161V3.92929ZM23.4244 34.4019H23.7244V34.1019V30.3303V30.0303H23.4244H4.62021H4.32021V30.3303V32.2161C4.32021 32.8257 4.52905 33.351 4.94839 33.7716C4.9586 33.7818 4.96887 33.7919 4.9792 33.8019H4.62021V34.1019V34.4019H6.50062H23.4244ZM12.4419 13.0582V9.88666H28.7656V13.0582H12.4419ZM12.4419 18.7156V15.544H28.7656V18.7156H12.4419Z" fill="#1C1B1F" stroke="white" stroke-width="0.6"/>
</svg>
