<svg width="108" height="129" viewBox="0 0 108 129" fill="none" xmlns="http://www.w3.org/2000/svg">
<path d="M86.7115 51.1324H24.7058V30.5787C24.7058 16.7547 35.9825 5.50624 49.8425 5.50624C63.7019 5.50624 74.9792 16.7541 74.9792 30.5787C74.9792 31.9408 76.0852 33.044 77.4508 33.044C78.8163 33.044 79.9223 31.9408 79.9223 30.5787C79.9223 14.0373 66.4276 0.575684 49.8425 0.575684C33.2575 0.575684 19.7626 14.036 19.7626 30.5787V51.1261H12.9781C6.16265 51.1261 0.620117 56.6545 0.620117 63.4525V116.425C0.620117 123.223 6.16265 128.751 12.9781 128.751H86.705C93.5205 128.751 99.063 123.223 99.063 116.425L99.0692 63.4588C99.0692 56.6608 93.5208 51.1324 86.7115 51.1324ZM94.1263 116.432C94.1263 120.512 90.8019 123.828 86.7115 123.828H12.9846C8.89413 123.828 5.56978 120.512 5.56978 116.432V63.4596C5.56978 59.3796 8.89413 56.0638 12.9846 56.0638H86.7115C90.8019 56.0638 94.1263 59.3796 94.1263 63.4596V116.432Z" fill="black"/>
<path d="M105.626 44.6052L93.0144 40.7717C91.7107 40.3773 90.3266 41.1107 89.9312 42.4112C89.5357 43.7117 90.271 45.0921 91.5748 45.4866L104.186 49.3201C104.427 49.3941 104.668 49.4249 104.909 49.4249C105.966 49.4249 106.948 48.7408 107.276 47.6807C107.665 46.3802 106.93 45.0058 105.626 44.6052Z" fill="black"/>
<path d="M92.2966 31.3486C92.6797 31.3486 93.0628 31.2623 93.4273 31.0712L105.143 25.0436C106.354 24.4211 106.829 22.9297 106.205 21.7216C105.581 20.5136 104.086 20.0391 102.875 20.6615L91.1596 26.6891C89.9485 27.3116 89.4728 28.803 90.0968 30.0111C90.5355 30.8617 91.4007 31.3486 92.2966 31.3486Z" fill="black"/>
<path d="M49.847 71.4272C44.0572 71.4272 39.3428 76.1298 39.3428 81.9046V97.979C39.3428 103.754 44.0574 108.456 49.847 108.456C51.2125 108.456 52.3186 107.353 52.3186 105.991C52.3186 104.629 51.2125 103.526 49.847 103.526C46.7822 103.526 44.286 101.036 44.286 97.979V81.9046C44.286 78.8477 46.7822 76.3578 49.847 76.3578C52.9118 76.3578 55.408 78.8477 55.408 81.9046C55.408 83.2667 56.5141 84.3699 57.8796 84.3699C59.2452 84.3699 60.3512 83.2667 60.3512 81.9046C60.3512 76.1297 55.6366 71.4272 49.847 71.4272Z" fill="black"/>
</svg>
