<svg xmlns="http://www.w3.org/2000/svg" width="200.231" height="86.687" viewBox="0 0 200.231 86.687">
  <g id="Group_1439" data-name="Group 1439" transform="translate(-1366 -143.783)">
    <g id="Group_1438" data-name="Group 1438" transform="translate(1366 143.783)">
      <path id="Path_549" data-name="Path 549" d="M43.343,0A43.343,43.343,0,0,1,86.687,43.343V71.95A14.737,14.737,0,0,1,71.95,86.687H14.737A14.737,14.737,0,0,1,0,71.95V43.343A43.343,43.343,0,0,1,43.343,0Z" transform="translate(0 0)"/>
      <path id="Path_550" data-name="Path 550" d="M18.6-.753a16.921,16.921,0,0,1-6.634-1.295A16.624,16.624,0,0,1,6.606-5.631a16.624,16.624,0,0,1-3.583-5.363,16.8,16.8,0,0,1-1.295-6.588A16.727,16.727,0,0,1,3-24.124a16.446,16.446,0,0,1,3.56-5.317A16.381,16.381,0,0,1,11.9-33a17.017,17.017,0,0,1,6.611-1.271A17.139,17.139,0,0,1,25.168-33a16.381,16.381,0,0,1,5.34,3.56,16.691,16.691,0,0,1,3.583,5.34,16.634,16.634,0,0,1,1.295,6.565,16.634,16.634,0,0,1-1.295,6.565,16.691,16.691,0,0,1-3.583,5.34,16.76,16.76,0,0,1-5.317,3.583A16.585,16.585,0,0,1,18.6-.753Zm-.092-5.872a10.4,10.4,0,0,0,5.455-1.387A9.782,9.782,0,0,0,27.6-11.849a11.927,11.927,0,0,0,1.318-5.733,12.508,12.508,0,0,0-.74-4.392,9.972,9.972,0,0,0-2.127-3.444,9.507,9.507,0,0,0-3.283-2.242,11.01,11.01,0,0,0-4.253-.786,10.48,10.48,0,0,0-5.386,1.364,9.569,9.569,0,0,0-3.652,3.814,11.825,11.825,0,0,0-1.318,5.687A12.681,12.681,0,0,0,8.917-13.1,10.106,10.106,0,0,0,11.044-9.63a9.373,9.373,0,0,0,3.283,2.219A10.933,10.933,0,0,0,18.511-6.625Z" transform="translate(7.701 63.869)" fill="#fff"/>
      <path id="Path_551" data-name="Path 551" d="M16.69,33.473A17.017,17.017,0,0,1,10.079,32.2a16.381,16.381,0,0,1-5.34-3.56A15.787,15.787,0,0,1,1.225,23.3,17.454,17.454,0,0,1,0,16.736a17.454,17.454,0,0,1,1.225-6.565A15.543,15.543,0,0,1,4.739,4.854a16.954,16.954,0,0,1,5.317-3.56A16.7,16.7,0,0,1,16.69,0a17.206,17.206,0,0,1,6.842,1.271,16.969,16.969,0,0,1,5.224,3.491L24.5,9.015A9.315,9.315,0,0,0,21.221,6.7a11.429,11.429,0,0,0-4.531-.832,10.869,10.869,0,0,0-4.138.763A9.29,9.29,0,0,0,9.293,8.854a9.93,9.93,0,0,0-2.127,3.467,12.7,12.7,0,0,0-.74,4.415,12.649,12.649,0,0,0,.74,4.438,9.972,9.972,0,0,0,2.127,3.444,9.561,9.561,0,0,0,3.259,2.242,10.588,10.588,0,0,0,4.138.786,11.993,11.993,0,0,0,4.693-.832,9.007,9.007,0,0,0,3.306-2.358l4.253,4.253a16.122,16.122,0,0,1-5.271,3.514A18.094,18.094,0,0,1,16.69,33.473Z" transform="translate(42.745 35.602) rotate(-20)" fill="#fff"/>
    </g>
    <path id="Path_553" data-name="Path 553" d="M7.946-15.381V-20.14h7.318a4.926,4.926,0,0,0,3.48-1.145,4.1,4.1,0,0,0,1.235-3.165,4.174,4.174,0,0,0-1.235-3.075,4.705,4.705,0,0,0-3.48-1.235H7.946v-4.984H15.8a11.568,11.568,0,0,1,5.365,1.19A8.918,8.918,0,0,1,24.76-29.3a8.849,8.849,0,0,1,1.28,4.759,8.9,8.9,0,0,1-1.28,4.826,8.636,8.636,0,0,1-3.614,3.188,12.2,12.2,0,0,1-5.433,1.145Zm-4.49,13.2V-33.744H9.562V-2.181Zm17.241,0L10.28-15.83l5.612-1.751L28.1-2.181Zm10.865,0V-33.744h6.106V-2.181Zm4.49,0V-7.569H53.516v5.388Zm0-13.514V-20.9H51.945V-15.7Zm0-12.661v-5.388H53.292v5.388Zm20.2,26.175L68.961-33.744h4.984L86.606-2.181H80.1L70.308-28.087h2.245L62.631-2.181ZM62.99-8.063v-5.118H79.961v5.118ZM90.332-2.181V-33.744h6.106V-2.181Zm4.49,0V-7.614H110.9v5.433Z" transform="translate(1455.336 207.36)" fill="#1f1f1f"/>
  </g>
</svg>
