<svg width="280" height="100" viewBox="0 0 247 87" fill="none" xmlns="http://www.w3.org/2000/svg">
<path d="M43.3433 0C67.2811 0 86.6866 19.4054 86.6866 43.3433V71.9499C86.6866 80.0887 80.0887 86.6866 71.9499 86.6866H14.7367C6.59785 86.6866 0 80.0887 0 71.9499V43.3433C0 19.4054 19.4054 0 43.3433 0Z" fill="black"/>
<path d="M26.3047 63.1165C23.9314 63.1165 21.7199 62.685 19.6703 61.8219C17.6206 60.9589 15.8329 59.7646 14.3073 58.2389C12.7816 56.7132 11.5872 54.9255 10.7242 52.8759C9.86119 50.8262 9.42969 48.6302 9.42969 46.2877C9.42969 43.9452 9.85349 41.7646 10.7011 39.7458C11.5487 37.7269 12.7353 35.9547 14.261 34.429C15.7867 32.9033 17.5667 31.7167 19.6009 30.8691C21.6352 30.0215 23.8389 29.5977 26.2122 29.5977C28.6163 29.5977 30.8355 30.0215 32.8697 30.8691C34.904 31.7167 36.6839 32.9033 38.2096 34.429C39.7353 35.9547 40.9297 37.7346 41.7927 39.7689C42.6557 41.8031 43.0872 43.9915 43.0872 46.3339C43.0872 48.6764 42.6557 50.8648 41.7927 52.899C40.9297 54.9333 39.7353 56.7132 38.2096 58.2389C36.6839 59.7646 34.9117 60.9589 32.8929 61.8219C30.874 62.685 28.678 63.1165 26.3047 63.1165ZM26.2122 57.2449C28.3081 57.2449 30.1266 56.7826 31.6677 55.8579C33.2088 54.9333 34.4185 53.6541 35.297 52.0206C36.1754 50.387 36.6146 48.4761 36.6146 46.2877C36.6146 44.685 36.368 43.2209 35.8749 41.8956C35.3817 40.5702 34.6728 39.4221 33.7482 38.4512C32.8235 37.4804 31.7293 36.7329 30.4656 36.209C29.2019 35.685 27.7841 35.423 26.2122 35.423C24.178 35.423 22.3826 35.8776 20.8261 36.7869C19.2696 37.6961 18.0521 38.9675 17.1737 40.6011C16.2953 42.2346 15.8561 44.1302 15.8561 46.2877C15.8561 47.9213 16.1103 49.4161 16.6189 50.7723C17.1275 52.1285 17.8364 53.2843 18.7456 54.2398C19.6549 55.1952 20.749 55.935 22.0281 56.4589C23.3072 56.9829 24.7019 57.2449 26.2122 57.2449Z" fill="white"/>
<path d="M69.8818 62.4487C67.6517 63.2604 65.4358 63.6159 63.2344 63.5152C61.0329 63.4145 58.9544 62.9082 56.999 61.9963C55.0435 61.0844 53.3341 59.8124 51.8708 58.1802C50.4075 56.548 49.2753 54.6313 48.4741 52.4301C47.673 50.2289 47.3083 48.0328 47.38 45.8419C47.4518 43.651 47.9463 41.585 48.8634 39.644C49.7805 37.703 51.04 35.9818 52.642 34.4803C54.2439 32.9789 56.1744 31.817 58.4335 30.9948C60.8664 30.1093 63.1546 29.7274 65.2982 29.8493C67.4417 29.9711 69.4761 30.4688 71.4013 31.3425L68.8591 36.7942C67.6819 36.1731 66.3901 35.8232 64.9839 35.7446C63.5777 35.666 62.0637 35.9219 60.4417 36.5123C59.0225 37.0288 57.8134 37.7395 56.8143 38.6443C55.8153 39.5492 55.0473 40.6159 54.5105 41.8445C53.9737 43.073 53.7028 44.4016 53.698 45.8302C53.6931 47.2587 53.9648 48.7261 54.513 50.2321C55.0717 51.7672 55.8094 53.0731 56.7261 54.1498C57.6428 55.2266 58.7016 56.063 59.9026 56.6591C61.1035 57.2552 62.3801 57.5859 63.7323 57.6514C65.0845 57.7168 66.4702 57.4912 67.8894 56.9747C69.5983 56.3527 70.9733 55.5571 72.0144 54.5877C73.0556 53.6184 73.8222 52.5029 74.3143 51.2414L79.766 53.7836C78.8633 55.7193 77.613 57.4208 76.015 58.888C74.417 60.3552 72.3727 61.5421 69.8818 62.4487Z" fill="white"/>
<path d="M107.72 37.768C107.613 37.9493 107.501 38.0827 107.384 38.168C107.267 38.2533 107.117 38.296 106.936 38.296C106.744 38.296 106.525 38.2107 106.28 38.04C106.035 37.8587 105.725 37.6613 105.352 37.448C104.989 37.224 104.552 37.0267 104.04 36.856C103.528 36.6747 102.915 36.584 102.2 36.584C101.528 36.584 100.936 36.6747 100.424 36.856C99.9227 37.0267 99.5013 37.2667 99.16 37.576C98.8187 37.8747 98.5573 38.232 98.376 38.648C98.2053 39.0533 98.12 39.496 98.12 39.976C98.12 40.5947 98.2747 41.1067 98.584 41.512C98.904 41.9173 99.32 42.264 99.832 42.552C100.344 42.84 100.925 43.0907 101.576 43.304C102.227 43.5173 102.893 43.7413 103.576 43.976C104.259 44.2 104.925 44.4613 105.576 44.76C106.227 45.0587 106.808 45.4373 107.32 45.896C107.832 46.344 108.243 46.8987 108.552 47.56C108.872 48.2107 109.032 49.0107 109.032 49.96C109.032 50.9733 108.856 51.9227 108.504 52.808C108.163 53.6933 107.661 54.4667 107 55.128C106.339 55.7893 105.523 56.312 104.552 56.696C103.592 57.0693 102.499 57.256 101.272 57.256C100.536 57.256 99.8213 57.1813 99.128 57.032C98.4347 56.8933 97.7787 56.696 97.16 56.44C96.5413 56.1733 95.96 55.8587 95.416 55.496C94.8827 55.1227 94.4027 54.7067 93.976 54.248L94.952 52.616C95.048 52.488 95.16 52.3813 95.288 52.296C95.4267 52.2107 95.5813 52.168 95.752 52.168C95.976 52.168 96.232 52.2853 96.52 52.52C96.8187 52.7547 97.1813 53.016 97.608 53.304C98.0453 53.5813 98.5627 53.8373 99.16 54.072C99.768 54.3067 100.504 54.424 101.368 54.424C102.072 54.424 102.701 54.3333 103.256 54.152C103.811 53.96 104.275 53.6933 104.648 53.352C105.032 53 105.325 52.5787 105.528 52.088C105.731 51.5973 105.832 51.0533 105.832 50.456C105.832 49.784 105.677 49.2347 105.368 48.808C105.059 48.3813 104.648 48.024 104.136 47.736C103.624 47.448 103.043 47.2027 102.392 47C101.741 46.7973 101.075 46.5893 100.392 46.376C99.7093 46.152 99.0427 45.896 98.392 45.608C97.7413 45.32 97.16 44.9467 96.648 44.488C96.136 44.0187 95.7253 43.4373 95.416 42.744C95.1067 42.04 94.952 41.176 94.952 40.152C94.952 39.3307 95.112 38.536 95.432 37.768C95.752 37 96.216 36.3227 96.824 35.736C97.4427 35.1387 98.2 34.664 99.096 34.312C99.992 33.9493 101.016 33.768 102.168 33.768C103.459 33.768 104.643 33.976 105.72 34.392C106.808 34.7973 107.752 35.384 108.552 36.152L107.72 37.768ZM115.183 43C115.535 42.6267 115.903 42.2853 116.287 41.976C116.671 41.6667 117.076 41.4053 117.503 41.192C117.94 40.968 118.404 40.7973 118.895 40.68C119.396 40.552 119.929 40.488 120.495 40.488C121.391 40.488 122.175 40.6373 122.847 40.936C123.529 41.2347 124.1 41.656 124.559 42.2C125.017 42.7333 125.364 43.3787 125.599 44.136C125.833 44.8933 125.951 45.7307 125.951 46.648V57H122.815V46.648C122.815 45.4853 122.548 44.584 122.015 43.944C121.481 43.2933 120.665 42.968 119.567 42.968C118.767 42.968 118.015 43.16 117.311 43.544C116.617 43.9173 115.972 44.4293 115.375 45.08V57H112.255V40.744H114.127C114.564 40.744 114.836 40.952 114.943 41.368L115.183 43ZM138.897 49.784C137.627 49.8267 136.55 49.928 135.665 50.088C134.779 50.2373 134.059 50.44 133.505 50.696C132.95 50.952 132.55 51.256 132.305 51.608C132.059 51.9493 131.937 52.3333 131.937 52.76C131.937 53.1653 132.001 53.5173 132.129 53.816C132.267 54.104 132.449 54.344 132.673 54.536C132.907 54.7173 133.179 54.8507 133.489 54.936C133.798 55.0213 134.134 55.064 134.497 55.064C134.977 55.064 135.414 55.016 135.809 54.92C136.214 54.824 136.593 54.6907 136.945 54.52C137.297 54.3387 137.633 54.12 137.953 53.864C138.273 53.608 138.587 53.3147 138.897 52.984V49.784ZM129.745 43.016C130.651 42.152 131.633 41.5067 132.689 41.08C133.755 40.6533 134.923 40.44 136.193 40.44C137.121 40.44 137.942 40.5947 138.657 40.904C139.371 41.2027 139.974 41.624 140.465 42.168C140.955 42.712 141.323 43.3627 141.569 44.12C141.825 44.8773 141.953 45.7147 141.953 46.632V57H140.561C140.251 57 140.017 56.952 139.857 56.856C139.697 56.7493 139.569 56.5573 139.473 56.28L139.137 54.856C138.721 55.24 138.31 55.5813 137.905 55.88C137.499 56.168 137.073 56.4187 136.625 56.632C136.187 56.8347 135.718 56.9893 135.217 57.096C134.715 57.2027 134.161 57.256 133.553 57.256C132.913 57.256 132.31 57.1707 131.745 57C131.19 56.8187 130.705 56.5467 130.289 56.184C129.873 55.8213 129.542 55.368 129.297 54.824C129.062 54.28 128.945 53.6453 128.945 52.92C128.945 52.28 129.115 51.6667 129.457 51.08C129.809 50.4827 130.374 49.9493 131.153 49.48C131.942 49.0107 132.966 48.6267 134.225 48.328C135.494 48.0293 137.051 47.8587 138.897 47.816V46.632C138.897 45.4053 138.635 44.488 138.113 43.88C137.59 43.272 136.822 42.968 135.809 42.968C135.126 42.968 134.55 43.0533 134.081 43.224C133.622 43.3947 133.222 43.5867 132.881 43.8C132.55 44.0027 132.257 44.1893 132.001 44.36C131.755 44.5307 131.499 44.616 131.233 44.616C131.019 44.616 130.833 44.5573 130.673 44.44C130.523 44.3227 130.401 44.184 130.305 44.024L129.745 43.016ZM149.25 53C149.762 53.672 150.311 54.1413 150.898 54.408C151.495 54.6747 152.162 54.808 152.898 54.808C154.327 54.808 155.431 54.296 156.21 53.272C156.999 52.2373 157.394 50.7333 157.394 48.76C157.394 47.7253 157.303 46.8453 157.122 46.12C156.951 45.384 156.695 44.7867 156.354 44.328C156.023 43.8587 155.612 43.5173 155.122 43.304C154.631 43.08 154.076 42.968 153.458 42.968C152.551 42.968 151.762 43.1707 151.09 43.576C150.428 43.9813 149.815 44.5573 149.25 45.304V53ZM149.09 43.176C149.431 42.7707 149.794 42.4027 150.178 42.072C150.572 41.7307 150.994 41.4427 151.442 41.208C151.89 40.9627 152.364 40.776 152.866 40.648C153.378 40.5093 153.922 40.44 154.498 40.44C155.426 40.44 156.263 40.6213 157.01 40.984C157.767 41.3467 158.412 41.88 158.946 42.584C159.479 43.288 159.89 44.1573 160.178 45.192C160.476 46.2267 160.626 47.416 160.626 48.76C160.626 49.9653 160.46 51.0853 160.13 52.12C159.81 53.144 159.346 54.0347 158.738 54.792C158.14 55.5493 157.404 56.1467 156.53 56.584C155.666 57.0107 154.69 57.224 153.602 57.224C152.631 57.224 151.799 57.064 151.106 56.744C150.412 56.424 149.794 55.976 149.25 55.4V62.456H146.13V40.744H148.002C148.439 40.744 148.711 40.952 148.818 41.368L149.09 43.176ZM167.25 42.808C167.932 42.1147 168.684 41.5547 169.506 41.128C170.338 40.7013 171.292 40.488 172.37 40.488C173.266 40.488 174.05 40.6373 174.722 40.936C175.404 41.2347 175.975 41.656 176.434 42.2C176.892 42.7333 177.239 43.3787 177.474 44.136C177.708 44.8933 177.826 45.7307 177.826 46.648V57H174.69V46.648C174.69 45.4853 174.423 44.584 173.89 43.944C173.356 43.2933 172.54 42.968 171.442 42.968C170.642 42.968 169.89 43.16 169.186 43.544C168.492 43.9173 167.847 44.4293 167.25 45.08V57H164.13V33.384H167.25V42.808ZM188.964 40.488C190.158 40.488 191.236 40.6853 192.196 41.08C193.166 41.464 193.988 42.024 194.66 42.76C195.342 43.4853 195.865 44.3653 196.228 45.4C196.59 46.424 196.772 47.576 196.772 48.856C196.772 50.136 196.59 51.2933 196.228 52.328C195.865 53.3627 195.342 54.2427 194.66 54.968C193.988 55.6933 193.166 56.2533 192.196 56.648C191.236 57.032 190.158 57.224 188.964 57.224C187.758 57.224 186.67 57.032 185.7 56.648C184.74 56.2533 183.918 55.6933 183.236 54.968C182.553 54.2427 182.025 53.3627 181.652 52.328C181.289 51.2933 181.108 50.136 181.108 48.856C181.108 47.576 181.289 46.424 181.652 45.4C182.025 44.3653 182.553 43.4853 183.236 42.76C183.918 42.024 184.74 41.464 185.7 41.08C186.67 40.6853 187.758 40.488 188.964 40.488ZM188.964 54.792C190.5 54.792 191.646 54.2747 192.404 53.24C193.161 52.2053 193.54 50.7493 193.54 48.872C193.54 46.9947 193.161 45.5387 192.404 44.504C191.646 43.4587 190.5 42.936 188.964 42.936C187.406 42.936 186.244 43.4587 185.476 44.504C184.718 45.5387 184.34 46.9947 184.34 48.872C184.34 50.7493 184.718 52.2053 185.476 53.24C186.244 54.2747 187.406 54.792 188.964 54.792ZM200.255 57V40.744H202.127C202.564 40.744 202.836 40.952 202.943 41.368L203.167 42.92C203.764 42.2053 204.425 41.624 205.151 41.176C205.887 40.7173 206.745 40.488 207.727 40.488C208.804 40.488 209.679 40.7867 210.351 41.384C211.023 41.9707 211.513 42.7707 211.823 43.784C212.057 43.208 212.361 42.712 212.735 42.296C213.108 41.88 213.524 41.5387 213.983 41.272C214.441 41.0053 214.927 40.808 215.439 40.68C215.961 40.552 216.489 40.488 217.023 40.488C217.887 40.488 218.655 40.6267 219.327 40.904C220.009 41.1707 220.585 41.5653 221.055 42.088C221.524 42.6107 221.881 43.256 222.127 44.024C222.372 44.792 222.495 45.6667 222.495 46.648V57H219.359V46.648C219.359 45.432 219.092 44.5147 218.559 43.896C218.036 43.2773 217.268 42.968 216.255 42.968C215.807 42.968 215.38 43.048 214.975 43.208C214.569 43.3573 214.212 43.5867 213.903 43.896C213.604 44.2053 213.364 44.5893 213.183 45.048C213.012 45.5067 212.927 46.04 212.927 46.648V57H209.791V46.648C209.791 45.3893 209.54 44.4613 209.039 43.864C208.537 43.2667 207.801 42.968 206.831 42.968C206.159 42.968 205.535 43.144 204.959 43.496C204.383 43.848 203.855 44.328 203.375 44.936V57H200.255ZM238.02 42.056C238.02 42.28 237.977 42.4987 237.892 42.712C237.817 42.9253 237.716 43.1067 237.588 43.256L229.06 54.552H237.732V57H225.396V55.688C225.396 55.5387 225.433 55.3627 225.508 55.16C225.583 54.9467 225.689 54.7493 225.828 54.568L234.404 43.192H225.892V40.744H238.02V42.056Z" fill="black"/>
</svg>
